<svg xmlns="http://www.w3.org/2000/svg" width="50" height="50" viewBox="0 0 13.229 13.229">
	<path d="M13.085.02c-.932.007-4.978 3.115-6.173 4.708-1.365 1.82-3.82 3.97-2.498 5.13 1.321 1.163 3.897-2.045 5.034-3.666S13.186 1.33 13.277.219c.01-.139-.059-.2-.192-.2ZM3.198 9.65c-.36-.006-.72.217-1.042.793-.762 1.367-2.184 1.772-2.104 1.97.08.197-.053.75 1.795.833 1.847.082 3.403-1.676 2.727-2.611-.391-.54-.883-.977-1.376-.985Z"
	      style="fill:#000;stroke-width:.0670994" transform="translate(-.049 -.02)"/>
</svg>