<svg xmlns="http://www.w3.org/2000/svg" width="50" height="50" viewBox="0 0 13.229 13.229">
	<path d="M4.341 25.934h11.044M4.34 31.694h11.044m-5.522-9.108v12.456m-6.228-6.228h12.456m-2.965 0a3.263 6.228 0 0 1-3.263 6.228A3.263 6.228 0 0 1 6.6 28.814a3.263 6.228 0 0 1 3.263-6.228 3.263 6.228 0 0 1 3.263 6.228zm2.965 0a6.228 6.228 0 0 1-6.228 6.228 6.228 6.228 0 0 1-6.228-6.228 6.228 6.228 0 0 1 6.228-6.228 6.228 6.228 0 0 1 6.228 6.228z"
	      style="fill:none;stroke:#000;stroke-width:.773274;stroke-dasharray:none;stroke-opacity:1"
	      transform="translate(-3.248 -22.2)"/>
</svg>