<svg version="1.1" xmlns="http://www.w3.org/2000/svg" viewBox="0 0 800 800" width="800.0" height="800.0"><defs ><radialGradient id="gradient1" fx="0.0" fy="0.0" fr="0.0" cx="0.5" cy="0.5" r="1.0"><stop offset="0.0%" stop-color="rgb(17.604384736491514,224.88087598212286,55.2070185394582)"></stop><stop offset="100.0%" stop-color="rgb(192.05417040436873,141.88844107420647,70.07329294690273)"></stop></radialGradient></defs><g ><path d=" M 0.0 133.33333333333334 l 133.33333333333334 0.0 l 0.0 133.33333333333334 l -133.33333333333334 0.0 l 0.0 -133.33333333333334 M 0.0 266.6666666666667 l 133.33333333333334 0.0 l 0.0 133.33333333333334 l -133.33333333333334 0.0 l 0.0 -133.33333333333334 M 0.0 400.0 l 133.33333333333334 0.0 l 0.0 133.33333333333334 l -133.33333333333334 -133.33333333333334 M 0.0 533.3333333333334 l 133.33333333333334 133.33333333333334 l -133.33333333333334 0.0 l 0.0 -133.33333333333334 M 0.0 666.6666666666667 l 133.33333333333334 133.33333333333334 l -133.33333333333334 0.0 l 0.0 -133.33333333333334 M 133.33333333333334 133.33333333333334 l 133.33333333333334 0.0 l 0.0 133.33333333333334 l -133.33333333333334 0.0 l 0.0 -133.33333333333334 M 133.33333333333334 400.0 l 133.33333333333334 0.0 l 0.0 133.33333333333334 l -133.33333333333334 0.0 l 0.0 -133.33333333333334 M 133.33333333333334 533.3333333333334 l 133.33333333333334 0.0 l 0.0 133.33333333333334 l -133.33333333333334 0.0 l 0.0 -133.33333333333334 M 266.6666666666667 0.0 l 133.33333333333334 0.0 l 0.0 133.33333333333334 l -133.33333333333334 -133.33333333333334 M 266.6666666666667 133.33333333333334 l 133.33333333333334 0.0 l 0.0 133.33333333333334 l -133.33333333333334 0.0 l 0.0 -133.33333333333334 M 266.6666666666667 266.6666666666667 m 133.33333333333334 0.0 l 0.0 133.33333333333334 l -133.33333333333334 0.0 l 133.33333333333334 -133.33333333333334 M 266.6666666666667 533.3333333333334 l 133.33333333333334 0.0 l -133.33333333333334 133.33333333333334 l 0.0 -133.33333333333334 M 400.0 0.0 l 133.33333333333334 0.0 l 0.0 133.33333333333334 l -133.33333333333334 0.0 l 0.0 -133.33333333333334 M 400.0 133.33333333333334 l 133.33333333333334 0.0 l 0.0 133.33333333333334 l -133.33333333333334 0.0 l 0.0 -133.33333333333334 M 400.0 533.3333333333334 l 133.33333333333334 0.0 l 0.0 133.33333333333334 l -133.33333333333334 0.0 l 0.0 -133.33333333333334 M 533.3333333333334 0.0 l 133.33333333333334 133.33333333333334 l -133.33333333333334 0.0 l 0.0 -133.33333333333334 M 533.3333333333334 133.33333333333334 m 133.33333333333334 0.0 l 0.0 133.33333333333334 l -133.33333333333334 0.0 l 133.33333333333334 -133.33333333333334 M 533.3333333333334 533.3333333333334 l 133.33333333333334 0.0 l 0.0 133.33333333333334 l -133.33333333333334 0.0 l 0.0 -133.33333333333334 M 533.3333333333334 666.6666666666667 l 133.33333333333334 0.0 l 0.0 133.33333333333334 l -133.33333333333334 -133.33333333333334 M 666.6666666666667 133.33333333333334 l 133.33333333333334 0.0 l -133.33333333333334 133.33333333333334 l 0.0 -133.33333333333334 M 666.6666666666667 266.6666666666667 l 133.33333333333334 0.0 l 0.0 133.33333333333334 l -133.33333333333334 0.0 l 0.0 -133.33333333333334 M 666.6666666666667 533.3333333333334 l 133.33333333333334 0.0 l 0.0 133.33333333333334 l -133.33333333333334 -133.33333333333334" fill="url(#gradient1)" stroke="black"></path></g></svg>