<svg version="1.1" xmlns="http://www.w3.org/2000/svg" viewBox="0 0 800 800" width="800.0" height="800.0"><defs ><radialGradient id="gradient1" fx="0.0" fy="0.0" fr="0.0" cx="0.5" cy="0.5" r="1.0"><stop offset="0.0%" stop-color="rgb(65.95412347852817,140.58657637228904,58.29681134548501)"></stop><stop offset="100.0%" stop-color="rgb(21.5353774433896,216.51229825281,3.196324540347812)"></stop></radialGradient></defs><g ><path d=" M 0.0 0.0 l 66.66666666666667 0.0 l -66.66666666666667 66.66666666666667 l 0.0 -66.66666666666667 M 0.0 66.66666666666667 l 66.66666666666667 0.0 l -66.66666666666667 66.66666666666667 l 0.0 -66.66666666666667 M 0.0 400.0 l 66.66666666666667 0.0 l 0.0 66.66666666666667 l -66.66666666666667 0.0 l 0.0 -66.66666666666667 M 0.0 533.3333333333334 l 66.66666666666667 66.66666666666667 l -66.66666666666667 0.0 l 0.0 -66.66666666666667 M 0.0 600.0 l 66.66666666666667 0.0 l -66.66666666666667 66.66666666666667 l 0.0 -66.66666666666667 M 0.0 666.6666666666667 m 66.66666666666667 0.0 l 0.0 66.66666666666667 l -66.66666666666667 0.0 l 66.66666666666667 -66.66666666666667 M 0.0 733.3333333333334 m 66.66666666666667 0.0 l 0.0 66.66666666666667 l -66.66666666666667 0.0 l 66.66666666666667 -66.66666666666667 M 66.66666666666667 0.0 l 66.66666666666667 0.0 l -66.66666666666667 66.66666666666667 l 0.0 -66.66666666666667 M 66.66666666666667 66.66666666666667 l 66.66666666666667 0.0 l -66.66666666666667 66.66666666666667 l 0.0 -66.66666666666667 M 66.66666666666667 200.0 l 66.66666666666667 0.0 l 0.0 66.66666666666667 l -66.66666666666667 0.0 l 0.0 -66.66666666666667 M 66.66666666666667 333.33333333333337 l 66.66666666666667 0.0 l 0.0 66.66666666666667 l -66.66666666666667 0.0 l 0.0 -66.66666666666667 M 66.66666666666667 533.3333333333334 l 66.66666666666667 0.0 l 0.0 66.66666666666667 l -66.66666666666667 -66.66666666666667 M 66.66666666666667 600.0 l 66.66666666666667 66.66666666666667 l -66.66666666666667 0.0 l 0.0 -66.66666666666667 M 133.33333333333334 0.0 l 66.66666666666667 0.0 l 0.0 66.66666666666667 l -66.66666666666667 0.0 l 0.0 -66.66666666666667 M 133.33333333333334 266.6666666666667 l 66.66666666666667 0.0 l 0.0 66.66666666666667 l -66.66666666666667 0.0 l 0.0 -66.66666666666667 M 133.33333333333334 333.33333333333337 l 66.66666666666667 0.0 l -66.66666666666667 66.66666666666667 l 0.0 -66.66666666666667 M 133.33333333333334 400.0 l 66.66666666666667 0.0 l 0.0 66.66666666666667 l -66.66666666666667 0.0 l 0.0 -66.66666666666667 M 133.33333333333334 600.0 l 66.66666666666667 66.66666666666667 l -66.66666666666667 0.0 l 0.0 -66.66666666666667 M 133.33333333333334 733.3333333333334 l 66.66666666666667 0.0 l 0.0 66.66666666666667 l -66.66666666666667 0.0 l 0.0 -66.66666666666667 M 200.0 0.0 m 66.66666666666667 0.0 l 0.0 66.66666666666667 l -66.66666666666667 0.0 l 66.66666666666667 -66.66666666666667 M 200.0 66.66666666666667 l 66.66666666666667 0.0 l -66.66666666666667 66.66666666666667 l 0.0 -66.66666666666667 M 200.0 333.33333333333337 l 66.66666666666667 0.0 l -66.66666666666667 66.66666666666667 l 0.0 -66.66666666666667 M 200.0 400.0 m 66.66666666666667 0.0 l 0.0 66.66666666666667 l -66.66666666666667 0.0 l 66.66666666666667 -66.66666666666667 M 200.0 600.0 l 66.66666666666667 0.0 l 0.0 66.66666666666667 l -66.66666666666667 0.0 l 0.0 -66.66666666666667 M 200.0 666.6666666666667 l 66.66666666666667 66.66666666666667 l -66.66666666666667 0.0 l 0.0 -66.66666666666667 M 200.0 733.3333333333334 l 66.66666666666667 0.0 l 0.0 66.66666666666667 l -66.66666666666667 0.0 l 0.0 -66.66666666666667 M 266.6666666666667 0.0 l 66.66666666666667 0.0 l -66.66666666666667 66.66666666666667 l 0.0 -66.66666666666667 M 266.6666666666667 133.33333333333334 l 66.66666666666667 0.0 l 0.0 66.66666666666667 l -66.66666666666667 0.0 l 0.0 -66.66666666666667 M 266.6666666666667 200.0 m 66.66666666666667 0.0 l 0.0 66.66666666666667 l -66.66666666666667 0.0 l 66.66666666666667 -66.66666666666667 M 266.6666666666667 333.33333333333337 l 66.66666666666667 66.66666666666667 l -66.66666666666667 0.0 l 0.0 -66.66666666666667 M 266.6666666666667 466.6666666666667 l 66.66666666666667 0.0 l 0.0 66.66666666666667 l -66.66666666666667 0.0 l 0.0 -66.66666666666667 M 266.6666666666667 533.3333333333334 m 66.66666666666667 0.0 l 0.0 66.66666666666667 l -66.66666666666667 0.0 l 66.66666666666667 -66.66666666666667 M 266.6666666666667 600.0 l 66.66666666666667 0.0 l 0.0 66.66666666666667 l -66.66666666666667 0.0 l 0.0 -66.66666666666667 M 333.33333333333337 0.0 l 66.66666666666667 0.0 l 0.0 66.66666666666667 l -66.66666666666667 0.0 l 0.0 -66.66666666666667 M 333.33333333333337 66.66666666666667 m 66.66666666666667 0.0 l 0.0 66.66666666666667 l -66.66666666666667 0.0 l 66.66666666666667 -66.66666666666667 M 333.33333333333337 200.0 l 66.66666666666667 0.0 l 0.0 66.66666666666667 l -66.66666666666667 -66.66666666666667 M 333.33333333333337 266.6666666666667 l 66.66666666666667 66.66666666666667 l -66.66666666666667 0.0 l 0.0 -66.66666666666667 M 333.33333333333337 333.33333333333337 l 66.66666666666667 0.0 l -66.66666666666667 66.66666666666667 l 0.0 -66.66666666666667 M 333.33333333333337 533.3333333333334 l 66.66666666666667 0.0 l 0.0 66.66666666666667 l -66.66666666666667 -66.66666666666667 M 333.33333333333337 666.6666666666667 l 66.66666666666667 0.0 l 0.0 66.66666666666667 l -66.66666666666667 0.0 l 0.0 -66.66666666666667 M 400.0 0.0 l 66.66666666666667 0.0 l 0.0 66.66666666666667 l -66.66666666666667 0.0 l 0.0 -66.66666666666667 M 400.0 66.66666666666667 l 66.66666666666667 66.66666666666667 l -66.66666666666667 0.0 l 0.0 -66.66666666666667 M 400.0 133.33333333333334 l 66.66666666666667 0.0 l 0.0 66.66666666666667 l -66.66666666666667 -66.66666666666667 M 400.0 466.6666666666667 l 66.66666666666667 0.0 l 0.0 66.66666666666667 l -66.66666666666667 0.0 l 0.0 -66.66666666666667 M 400.0 533.3333333333334 l 66.66666666666667 0.0 l 0.0 66.66666666666667 l -66.66666666666667 0.0 l 0.0 -66.66666666666667 M 400.0 666.6666666666667 l 66.66666666666667 0.0 l 0.0 66.66666666666667 l -66.66666666666667 0.0 l 0.0 -66.66666666666667 M 400.0 733.3333333333334 l 66.66666666666667 0.0 l 0.0 66.66666666666667 l -66.66666666666667 0.0 l 0.0 -66.66666666666667 M 466.6666666666667 0.0 l 66.66666666666667 0.0 l 0.0 66.66666666666667 l -66.66666666666667 0.0 l 0.0 -66.66666666666667 M 466.6666666666667 133.33333333333334 m 66.66666666666667 0.0 l 0.0 66.66666666666667 l -66.66666666666667 0.0 l 66.66666666666667 -66.66666666666667 M 466.6666666666667 333.33333333333337 l 66.66666666666667 0.0 l 0.0 66.66666666666667 l -66.66666666666667 0.0 l 0.0 -66.66666666666667 M 466.6666666666667 733.3333333333334 l 66.66666666666667 0.0 l -66.66666666666667 66.66666666666667 l 0.0 -66.66666666666667 M 533.3333333333334 66.66666666666667 l 66.66666666666667 0.0 l 0.0 66.66666666666667 l -66.66666666666667 0.0 l 0.0 -66.66666666666667 M 533.3333333333334 133.33333333333334 l 66.66666666666667 0.0 l 0.0 66.66666666666667 l -66.66666666666667 0.0 l 0.0 -66.66666666666667 M 533.3333333333334 266.6666666666667 l 66.66666666666667 66.66666666666667 l -66.66666666666667 0.0 l 0.0 -66.66666666666667 M 533.3333333333334 333.33333333333337 l 66.66666666666667 0.0 l 0.0 66.66666666666667 l -66.66666666666667 -66.66666666666667 M 533.3333333333334 533.3333333333334 l 66.66666666666667 66.66666666666667 l -66.66666666666667 0.0 l 0.0 -66.66666666666667 M 533.3333333333334 666.6666666666667 l 66.66666666666667 0.0 l 0.0 66.66666666666667 l -66.66666666666667 0.0 l 0.0 -66.66666666666667 M 600.0 0.0 l 66.66666666666667 0.0 l 0.0 66.66666666666667 l -66.66666666666667 0.0 l 0.0 -66.66666666666667 M 600.0 200.0 l 66.66666666666667 0.0 l 0.0 66.66666666666667 l -66.66666666666667 0.0 l 0.0 -66.66666666666667 M 600.0 333.33333333333337 l 66.66666666666667 66.66666666666667 l -66.66666666666667 0.0 l 0.0 -66.66666666666667 M 600.0 466.6666666666667 l 66.66666666666667 0.0 l 0.0 66.66666666666667 l -66.66666666666667 0.0 l 0.0 -66.66666666666667 M 600.0 666.6666666666667 l 66.66666666666667 0.0 l 0.0 66.66666666666667 l -66.66666666666667 0.0 l 0.0 -66.66666666666667 M 600.0 733.3333333333334 l 66.66666666666667 0.0 l 0.0 66.66666666666667 l -66.66666666666667 0.0 l 0.0 -66.66666666666667 M 666.6666666666667 0.0 l 66.66666666666667 0.0 l -66.66666666666667 66.66666666666667 l 0.0 -66.66666666666667 M 666.6666666666667 133.33333333333334 l 66.66666666666667 0.0 l 0.0 66.66666666666667 l -66.66666666666667 -66.66666666666667 M 666.6666666666667 200.0 l 66.66666666666667 0.0 l -66.66666666666667 66.66666666666667 l 0.0 -66.66666666666667 M 666.6666666666667 333.33333333333337 l 66.66666666666667 0.0 l 0.0 66.66666666666667 l -66.66666666666667 0.0 l 0.0 -66.66666666666667 M 666.6666666666667 400.0 l 66.66666666666667 0.0 l 0.0 66.66666666666667 l -66.66666666666667 0.0 l 0.0 -66.66666666666667 M 666.6666666666667 533.3333333333334 l 66.66666666666667 0.0 l 0.0 66.66666666666667 l -66.66666666666667 0.0 l 0.0 -66.66666666666667 M 666.6666666666667 600.0 l 66.66666666666667 0.0 l 0.0 66.66666666666667 l -66.66666666666667 0.0 l 0.0 -66.66666666666667 M 666.6666666666667 666.6666666666667 l 66.66666666666667 0.0 l 0.0 66.66666666666667 l -66.66666666666667 0.0 l 0.0 -66.66666666666667 M 666.6666666666667 733.3333333333334 l 66.66666666666667 0.0 l 0.0 66.66666666666667 l -66.66666666666667 0.0 l 0.0 -66.66666666666667 M 733.3333333333334 0.0 l 66.66666666666667 0.0 l 0.0 66.66666666666667 l -66.66666666666667 0.0 l 0.0 -66.66666666666667 M 733.3333333333334 200.0 l 66.66666666666667 0.0 l 0.0 66.66666666666667 l -66.66666666666667 0.0 l 0.0 -66.66666666666667 M 733.3333333333334 333.33333333333337 l 66.66666666666667 0.0 l 0.0 66.66666666666667 l -66.66666666666667 0.0 l 0.0 -66.66666666666667 M 733.3333333333334 466.6666666666667 l 66.66666666666667 0.0 l 0.0 66.66666666666667 l -66.66666666666667 0.0 l 0.0 -66.66666666666667 M 733.3333333333334 733.3333333333334 l 66.66666666666667 0.0 l 0.0 66.66666666666667 l -66.66666666666667 0.0 l 0.0 -66.66666666666667" fill="url(#gradient1)" stroke="black"></path></g></svg>