<svg version="1.1" xmlns="http://www.w3.org/2000/svg" viewBox="0 0 800 800" width="800.0" height="800.0"><defs ><radialGradient id="gradient1" fx="0.0" fy="0.0" fr="0.0" cx="0.5" cy="0.5" r="1.0"><stop offset="0.0%" stop-color="rgb(133.89829772661483,103.19833952857223,194.07972426932727)"></stop><stop offset="100.0%" stop-color="rgb(229.856180051675,79.92421860072976,173.22546598316046)"></stop></radialGradient></defs><g ><path d=" M 0.0 0.0 l 44.44444444444444 0.0 l -44.44444444444444 44.44444444444444 l 0.0 -44.44444444444444 M 0.0 133.33333333333331 l 44.44444444444444 0.0 l 0.0 44.44444444444444 l -44.44444444444444 0.0 l 0.0 -44.44444444444444 M 0.0 222.22222222222223 l 44.44444444444444 44.44444444444444 l -44.44444444444444 0.0 l 0.0 -44.44444444444444 M 0.0 266.66666666666663 l 44.44444444444444 0.0 l 0.0 44.44444444444444 l -44.44444444444444 0.0 l 0.0 -44.44444444444444 M 0.0 311.1111111111111 m 44.44444444444444 0.0 l 0.0 44.44444444444444 l -44.44444444444444 0.0 l 44.44444444444444 -44.44444444444444 M 0.0 355.55555555555554 l 44.44444444444444 0.0 l 0.0 44.44444444444444 l -44.44444444444444 0.0 l 0.0 -44.44444444444444 M 0.0 400.0 l 44.44444444444444 0.0 l 0.0 44.44444444444444 l -44.44444444444444 0.0 l 0.0 -44.44444444444444 M 0.0 488.88888888888886 l 44.44444444444444 0.0 l 0.0 44.44444444444444 l -44.44444444444444 0.0 l 0.0 -44.44444444444444 M 0.0 533.3333333333333 l 44.44444444444444 0.0 l 0.0 44.44444444444444 l -44.44444444444444 0.0 l 0.0 -44.44444444444444 M 0.0 577.7777777777777 l 44.44444444444444 0.0 l 0.0 44.44444444444444 l -44.44444444444444 0.0 l 0.0 -44.44444444444444 M 0.0 755.5555555555555 l 44.44444444444444 0.0 l -44.44444444444444 44.44444444444444 l 0.0 -44.44444444444444 M 44.44444444444444 133.33333333333331 m 44.44444444444444 0.0 l 0.0 44.44444444444444 l -44.44444444444444 0.0 l 44.44444444444444 -44.44444444444444 M 44.44444444444444 177.77777777777777 l 44.44444444444444 0.0 l 0.0 44.44444444444444 l -44.44444444444444 0.0 l 0.0 -44.44444444444444 M 44.44444444444444 222.22222222222223 l 44.44444444444444 0.0 l -44.44444444444444 44.44444444444444 l 0.0 -44.44444444444444 M 44.44444444444444 266.66666666666663 l 44.44444444444444 0.0 l 0.0 44.44444444444444 l -44.44444444444444 -44.44444444444444 M 44.44444444444444 355.55555555555554 l 44.44444444444444 0.0 l 0.0 44.44444444444444 l -44.44444444444444 0.0 l 0.0 -44.44444444444444 M 44.44444444444444 444.44444444444446 m 44.44444444444444 0.0 l 0.0 44.44444444444444 l -44.44444444444444 0.0 l 44.44444444444444 -44.44444444444444 M 44.44444444444444 533.3333333333333 l 44.44444444444444 0.0 l -44.44444444444444 44.44444444444444 l 0.0 -44.44444444444444 M 88.88888888888889 88.88888888888889 l 44.44444444444444 0.0 l -44.44444444444444 44.44444444444444 l 0.0 -44.44444444444444 M 88.88888888888889 177.77777777777777 l 44.44444444444444 0.0 l -44.44444444444444 44.44444444444444 l 0.0 -44.44444444444444 M 88.88888888888889 266.66666666666663 l 44.44444444444444 0.0 l -44.44444444444444 44.44444444444444 l 0.0 -44.44444444444444 M 88.88888888888889 488.88888888888886 l 44.44444444444444 0.0 l 0.0 44.44444444444444 l -44.44444444444444 0.0 l 0.0 -44.44444444444444 M 88.88888888888889 533.3333333333333 l 44.44444444444444 0.0 l 0.0 44.44444444444444 l -44.44444444444444 0.0 l 0.0 -44.44444444444444 M 88.88888888888889 577.7777777777777 l 44.44444444444444 0.0 l 0.0 44.44444444444444 l -44.44444444444444 0.0 l 0.0 -44.44444444444444 M 88.88888888888889 711.1111111111111 l 44.44444444444444 44.44444444444444 l -44.44444444444444 0.0 l 0.0 -44.44444444444444 M 133.33333333333331 44.44444444444444 l 44.44444444444444 0.0 l 0.0 44.44444444444444 l -44.44444444444444 0.0 l 0.0 -44.44444444444444 M 133.33333333333331 88.88888888888889 l 44.44444444444444 0.0 l 0.0 44.44444444444444 l -44.44444444444444 0.0 l 0.0 -44.44444444444444 M 133.33333333333331 222.22222222222223 l 44.44444444444444 0.0 l 0.0 44.44444444444444 l -44.44444444444444 0.0 l 0.0 -44.44444444444444 M 133.33333333333331 311.1111111111111 m 44.44444444444444 0.0 l 0.0 44.44444444444444 l -44.44444444444444 0.0 l 44.44444444444444 -44.44444444444444 M 133.33333333333331 355.55555555555554 l 44.44444444444444 0.0 l -44.44444444444444 44.44444444444444 l 0.0 -44.44444444444444 M 133.33333333333331 400.0 l 44.44444444444444 0.0 l 0.0 44.44444444444444 l -44.44444444444444 0.0 l 0.0 -44.44444444444444 M 133.33333333333331 488.88888888888886 l 44.44444444444444 0.0 l 0.0 44.44444444444444 l -44.44444444444444 0.0 l 0.0 -44.44444444444444 M 133.33333333333331 577.7777777777777 m 44.44444444444444 0.0 l 0.0 44.44444444444444 l -44.44444444444444 0.0 l 44.44444444444444 -44.44444444444444 M 133.33333333333331 711.1111111111111 l 44.44444444444444 0.0 l 0.0 44.44444444444444 l -44.44444444444444 0.0 l 0.0 -44.44444444444444 M 133.33333333333331 755.5555555555555 l 44.44444444444444 0.0 l 0.0 44.44444444444444 l -44.44444444444444 -44.44444444444444 M 177.77777777777777 0.0 m 44.44444444444444 0.0 l 0.0 44.44444444444444 l -44.44444444444444 0.0 l 44.44444444444444 -44.44444444444444 M 177.77777777777777 44.44444444444444 l 44.44444444444444 0.0 l 0.0 44.44444444444444 l -44.44444444444444 -44.44444444444444 M 177.77777777777777 88.88888888888889 l 44.44444444444444 44.44444444444444 l -44.44444444444444 0.0 l 0.0 -44.44444444444444 M 177.77777777777777 133.33333333333331 l 44.44444444444444 44.44444444444444 l -44.44444444444444 0.0 l 0.0 -44.44444444444444 M 177.77777777777777 177.77777777777777 l 44.44444444444444 0.0 l 0.0 44.44444444444444 l -44.44444444444444 0.0 l 0.0 -44.44444444444444 M 177.77777777777777 266.66666666666663 m 44.44444444444444 0.0 l 0.0 44.44444444444444 l -44.44444444444444 0.0 l 44.44444444444444 -44.44444444444444 M 177.77777777777777 311.1111111111111 l 44.44444444444444 0.0 l -44.44444444444444 44.44444444444444 l 0.0 -44.44444444444444 M 177.77777777777777 400.0 m 44.44444444444444 0.0 l 0.0 44.44444444444444 l -44.44444444444444 0.0 l 44.44444444444444 -44.44444444444444 M 177.77777777777777 666.6666666666666 l 44.44444444444444 44.44444444444444 l -44.44444444444444 0.0 l 0.0 -44.44444444444444 M 222.22222222222223 0.0 l 44.44444444444444 0.0 l 0.0 44.44444444444444 l -44.44444444444444 -44.44444444444444 M 222.22222222222223 88.88888888888889 l 44.44444444444444 0.0 l 0.0 44.44444444444444 l -44.44444444444444 0.0 l 0.0 -44.44444444444444 M 222.22222222222223 133.33333333333331 l 44.44444444444444 0.0 l 0.0 44.44444444444444 l -44.44444444444444 0.0 l 0.0 -44.44444444444444 M 222.22222222222223 222.22222222222223 l 44.44444444444444 0.0 l 0.0 44.44444444444444 l -44.44444444444444 -44.44444444444444 M 222.22222222222223 311.1111111111111 m 44.44444444444444 0.0 l 0.0 44.44444444444444 l -44.44444444444444 0.0 l 44.44444444444444 -44.44444444444444 M 222.22222222222223 444.44444444444446 l 44.44444444444444 0.0 l 0.0 44.44444444444444 l -44.44444444444444 0.0 l 0.0 -44.44444444444444 M 222.22222222222223 488.88888888888886 l 44.44444444444444 0.0 l 0.0 44.44444444444444 l -44.44444444444444 0.0 l 0.0 -44.44444444444444 M 222.22222222222223 577.7777777777777 l 44.44444444444444 0.0 l 0.0 44.44444444444444 l -44.44444444444444 -44.44444444444444 M 222.22222222222223 711.1111111111111 l 44.44444444444444 0.0 l 0.0 44.44444444444444 l -44.44444444444444 0.0 l 0.0 -44.44444444444444 M 266.66666666666663 0.0 m 44.44444444444444 0.0 l 0.0 44.44444444444444 l -44.44444444444444 0.0 l 44.44444444444444 -44.44444444444444 M 266.66666666666663 44.44444444444444 l 44.44444444444444 0.0 l 0.0 44.44444444444444 l -44.44444444444444 -44.44444444444444 M 266.66666666666663 177.77777777777777 l 44.44444444444444 44.44444444444444 l -44.44444444444444 0.0 l 0.0 -44.44444444444444 M 266.66666666666663 222.22222222222223 l 44.44444444444444 44.44444444444444 l -44.44444444444444 0.0 l 0.0 -44.44444444444444 M 266.66666666666663 266.66666666666663 l 44.44444444444444 0.0 l 0.0 44.44444444444444 l -44.44444444444444 -44.44444444444444 M 266.66666666666663 400.0 l 44.44444444444444 0.0 l -44.44444444444444 44.44444444444444 l 0.0 -44.44444444444444 M 266.66666666666663 444.44444444444446 l 44.44444444444444 44.44444444444444 l -44.44444444444444 0.0 l 0.0 -44.44444444444444 M 266.66666666666663 488.88888888888886 l 44.44444444444444 0.0 l 0.0 44.44444444444444 l -44.44444444444444 0.0 l 0.0 -44.44444444444444 M 266.66666666666663 711.1111111111111 l 44.44444444444444 0.0 l -44.44444444444444 44.44444444444444 l 0.0 -44.44444444444444 M 266.66666666666663 755.5555555555555 l 44.44444444444444 44.44444444444444 l -44.44444444444444 0.0 l 0.0 -44.44444444444444 M 311.1111111111111 44.44444444444444 l 44.44444444444444 0.0 l 0.0 44.44444444444444 l -44.44444444444444 0.0 l 0.0 -44.44444444444444 M 311.1111111111111 88.88888888888889 l 44.44444444444444 0.0 l 0.0 44.44444444444444 l -44.44444444444444 -44.44444444444444 M 311.1111111111111 222.22222222222223 l 44.44444444444444 0.0 l -44.44444444444444 44.44444444444444 l 0.0 -44.44444444444444 M 311.1111111111111 266.66666666666663 l 44.44444444444444 0.0 l 0.0 44.44444444444444 l -44.44444444444444 0.0 l 0.0 -44.44444444444444 M 311.1111111111111 311.1111111111111 l 44.44444444444444 0.0 l 0.0 44.44444444444444 l -44.44444444444444 0.0 l 0.0 -44.44444444444444 M 311.1111111111111 400.0 l 44.44444444444444 0.0 l -44.44444444444444 44.44444444444444 l 0.0 -44.44444444444444 M 311.1111111111111 444.44444444444446 m 44.44444444444444 0.0 l 0.0 44.44444444444444 l -44.44444444444444 0.0 l 44.44444444444444 -44.44444444444444 M 311.1111111111111 488.88888888888886 l 44.44444444444444 0.0 l 0.0 44.44444444444444 l -44.44444444444444 -44.44444444444444 M 311.1111111111111 533.3333333333333 l 44.44444444444444 44.44444444444444 l -44.44444444444444 0.0 l 0.0 -44.44444444444444 M 311.1111111111111 622.2222222222222 l 44.44444444444444 0.0 l 0.0 44.44444444444444 l -44.44444444444444 -44.44444444444444 M 311.1111111111111 711.1111111111111 l 44.44444444444444 0.0 l 0.0 44.44444444444444 l -44.44444444444444 0.0 l 0.0 -44.44444444444444 M 311.1111111111111 755.5555555555555 l 44.44444444444444 0.0 l 0.0 44.44444444444444 l -44.44444444444444 0.0 l 0.0 -44.44444444444444 M 355.55555555555554 0.0 l 44.44444444444444 0.0 l 0.0 44.44444444444444 l -44.44444444444444 0.0 l 0.0 -44.44444444444444 M 355.55555555555554 133.33333333333331 l 44.44444444444444 0.0 l 0.0 44.44444444444444 l -44.44444444444444 0.0 l 0.0 -44.44444444444444 M 355.55555555555554 177.77777777777777 l 44.44444444444444 0.0 l 0.0 44.44444444444444 l -44.44444444444444 -44.44444444444444 M 355.55555555555554 222.22222222222223 l 44.44444444444444 0.0 l 0.0 44.44444444444444 l -44.44444444444444 0.0 l 0.0 -44.44444444444444 M 355.55555555555554 266.66666666666663 l 44.44444444444444 0.0 l 0.0 44.44444444444444 l -44.44444444444444 0.0 l 0.0 -44.44444444444444 M 355.55555555555554 311.1111111111111 l 44.44444444444444 0.0 l 0.0 44.44444444444444 l -44.44444444444444 0.0 l 0.0 -44.44444444444444 M 355.55555555555554 444.44444444444446 l 44.44444444444444 0.0 l 0.0 44.44444444444444 l -44.44444444444444 0.0 l 0.0 -44.44444444444444 M 355.55555555555554 533.3333333333333 l 44.44444444444444 0.0 l 0.0 44.44444444444444 l -44.44444444444444 0.0 l 0.0 -44.44444444444444 M 355.55555555555554 577.7777777777777 l 44.44444444444444 44.44444444444444 l -44.44444444444444 0.0 l 0.0 -44.44444444444444 M 355.55555555555554 622.2222222222222 m 44.44444444444444 0.0 l 0.0 44.44444444444444 l -44.44444444444444 0.0 l 44.44444444444444 -44.44444444444444 M 355.55555555555554 755.5555555555555 l 44.44444444444444 0.0 l -44.44444444444444 44.44444444444444 l 0.0 -44.44444444444444 M 400.0 0.0 l 44.44444444444444 0.0 l 0.0 44.44444444444444 l -44.44444444444444 0.0 l 0.0 -44.44444444444444 M 400.0 44.44444444444444 l 44.44444444444444 0.0 l 0.0 44.44444444444444 l -44.44444444444444 -44.44444444444444 M 400.0 88.88888888888889 l 44.44444444444444 0.0 l 0.0 44.44444444444444 l -44.44444444444444 -44.44444444444444 M 400.0 133.33333333333331 l 44.44444444444444 44.44444444444444 l -44.44444444444444 0.0 l 0.0 -44.44444444444444 M 400.0 177.77777777777777 l 44.44444444444444 0.0 l -44.44444444444444 44.44444444444444 l 0.0 -44.44444444444444 M 400.0 222.22222222222223 l 44.44444444444444 0.0 l 0.0 44.44444444444444 l -44.44444444444444 -44.44444444444444 M 400.0 266.66666666666663 l 44.44444444444444 0.0 l 0.0 44.44444444444444 l -44.44444444444444 0.0 l 0.0 -44.44444444444444 M 400.0 400.0 l 44.44444444444444 0.0 l 0.0 44.44444444444444 l -44.44444444444444 0.0 l 0.0 -44.44444444444444 M 400.0 444.44444444444446 l 44.44444444444444 0.0 l 0.0 44.44444444444444 l -44.44444444444444 0.0 l 0.0 -44.44444444444444 M 400.0 577.7777777777777 l 44.44444444444444 0.0 l 0.0 44.44444444444444 l -44.44444444444444 0.0 l 0.0 -44.44444444444444 M 400.0 622.2222222222222 l 44.44444444444444 0.0 l -44.44444444444444 44.44444444444444 l 0.0 -44.44444444444444 M 400.0 755.5555555555555 l 44.44444444444444 44.44444444444444 l -44.44444444444444 0.0 l 0.0 -44.44444444444444 M 444.44444444444446 0.0 l 44.44444444444444 0.0 l 0.0 44.44444444444444 l -44.44444444444444 0.0 l 0.0 -44.44444444444444 M 444.44444444444446 88.88888888888889 l 44.44444444444444 0.0 l 0.0 44.44444444444444 l -44.44444444444444 0.0 l 0.0 -44.44444444444444 M 444.44444444444446 133.33333333333331 l 44.44444444444444 44.44444444444444 l -44.44444444444444 0.0 l 0.0 -44.44444444444444 M 444.44444444444446 177.77777777777777 l 44.44444444444444 0.0 l 0.0 44.44444444444444 l -44.44444444444444 -44.44444444444444 M 444.44444444444446 266.66666666666663 l 44.44444444444444 0.0 l -44.44444444444444 44.44444444444444 l 0.0 -44.44444444444444 M 444.44444444444446 355.55555555555554 l 44.44444444444444 0.0 l 0.0 44.44444444444444 l -44.44444444444444 0.0 l 0.0 -44.44444444444444 M 444.44444444444446 400.0 l 44.44444444444444 0.0 l 0.0 44.44444444444444 l -44.44444444444444 0.0 l 0.0 -44.44444444444444 M 444.44444444444446 444.44444444444446 l 44.44444444444444 0.0 l 0.0 44.44444444444444 l -44.44444444444444 0.0 l 0.0 -44.44444444444444 M 444.44444444444446 488.88888888888886 l 44.44444444444444 0.0 l -44.44444444444444 44.44444444444444 l 0.0 -44.44444444444444 M 444.44444444444446 577.7777777777777 l 44.44444444444444 0.0 l -44.44444444444444 44.44444444444444 l 0.0 -44.44444444444444 M 444.44444444444446 622.2222222222222 l 44.44444444444444 0.0 l 0.0 44.44444444444444 l -44.44444444444444 0.0 l 0.0 -44.44444444444444 M 444.44444444444446 666.6666666666666 m 44.44444444444444 0.0 l 0.0 44.44444444444444 l -44.44444444444444 0.0 l 44.44444444444444 -44.44444444444444 M 444.44444444444446 711.1111111111111 l 44.44444444444444 0.0 l 0.0 44.44444444444444 l -44.44444444444444 0.0 l 0.0 -44.44444444444444 M 488.88888888888886 44.44444444444444 l 44.44444444444444 0.0 l 0.0 44.44444444444444 l -44.44444444444444 0.0 l 0.0 -44.44444444444444 M 488.88888888888886 88.88888888888889 l 44.44444444444444 0.0 l 0.0 44.44444444444444 l -44.44444444444444 0.0 l 0.0 -44.44444444444444 M 488.88888888888886 177.77777777777777 l 44.44444444444444 0.0 l 0.0 44.44444444444444 l -44.44444444444444 0.0 l 0.0 -44.44444444444444 M 488.88888888888886 222.22222222222223 l 44.44444444444444 44.44444444444444 l -44.44444444444444 0.0 l 0.0 -44.44444444444444 M 488.88888888888886 266.66666666666663 l 44.44444444444444 0.0 l 0.0 44.44444444444444 l -44.44444444444444 0.0 l 0.0 -44.44444444444444 M 488.88888888888886 355.55555555555554 l 44.44444444444444 44.44444444444444 l -44.44444444444444 0.0 l 0.0 -44.44444444444444 M 488.88888888888886 400.0 l 44.44444444444444 44.44444444444444 l -44.44444444444444 0.0 l 0.0 -44.44444444444444 M 488.88888888888886 444.44444444444446 l 44.44444444444444 44.44444444444444 l -44.44444444444444 0.0 l 0.0 -44.44444444444444 M 488.88888888888886 488.88888888888886 l 44.44444444444444 0.0 l -44.44444444444444 44.44444444444444 l 0.0 -44.44444444444444 M 488.88888888888886 533.3333333333333 l 44.44444444444444 0.0 l 0.0 44.44444444444444 l -44.44444444444444 0.0 l 0.0 -44.44444444444444 M 488.88888888888886 622.2222222222222 l 44.44444444444444 0.0 l -44.44444444444444 44.44444444444444 l 0.0 -44.44444444444444 M 488.88888888888886 711.1111111111111 m 44.44444444444444 0.0 l 0.0 44.44444444444444 l -44.44444444444444 0.0 l 44.44444444444444 -44.44444444444444 M 533.3333333333333 0.0 l 44.44444444444444 0.0 l 0.0 44.44444444444444 l -44.44444444444444 -44.44444444444444 M 533.3333333333333 44.44444444444444 l 44.44444444444444 0.0 l 0.0 44.44444444444444 l -44.44444444444444 0.0 l 0.0 -44.44444444444444 M 533.3333333333333 88.88888888888889 l 44.44444444444444 0.0 l 0.0 44.44444444444444 l -44.44444444444444 0.0 l 0.0 -44.44444444444444 M 533.3333333333333 177.77777777777777 l 44.44444444444444 0.0 l 0.0 44.44444444444444 l -44.44444444444444 0.0 l 0.0 -44.44444444444444 M 533.3333333333333 311.1111111111111 l 44.44444444444444 0.0 l 0.0 44.44444444444444 l -44.44444444444444 0.0 l 0.0 -44.44444444444444 M 533.3333333333333 400.0 l 44.44444444444444 0.0 l 0.0 44.44444444444444 l -44.44444444444444 0.0 l 0.0 -44.44444444444444 M 533.3333333333333 488.88888888888886 l 44.44444444444444 0.0 l 0.0 44.44444444444444 l -44.44444444444444 0.0 l 0.0 -44.44444444444444 M 533.3333333333333 533.3333333333333 l 44.44444444444444 0.0 l 0.0 44.44444444444444 l -44.44444444444444 0.0 l 0.0 -44.44444444444444 M 533.3333333333333 622.2222222222222 l 44.44444444444444 0.0 l 0.0 44.44444444444444 l -44.44444444444444 0.0 l 0.0 -44.44444444444444 M 533.3333333333333 666.6666666666666 l 44.44444444444444 0.0 l 0.0 44.44444444444444 l -44.44444444444444 0.0 l 0.0 -44.44444444444444 M 533.3333333333333 711.1111111111111 l 44.44444444444444 0.0 l 0.0 44.44444444444444 l -44.44444444444444 0.0 l 0.0 -44.44444444444444 M 533.3333333333333 755.5555555555555 l 44.44444444444444 0.0 l 0.0 44.44444444444444 l -44.44444444444444 0.0 l 0.0 -44.44444444444444 M 577.7777777777777 44.44444444444444 m 44.44444444444444 0.0 l 0.0 44.44444444444444 l -44.44444444444444 0.0 l 44.44444444444444 -44.44444444444444 M 577.7777777777777 88.88888888888889 l 44.44444444444444 0.0 l 0.0 44.44444444444444 l -44.44444444444444 0.0 l 0.0 -44.44444444444444 M 577.7777777777777 133.33333333333331 l 44.44444444444444 0.0 l 0.0 44.44444444444444 l -44.44444444444444 0.0 l 0.0 -44.44444444444444 M 577.7777777777777 177.77777777777777 l 44.44444444444444 0.0 l 0.0 44.44444444444444 l -44.44444444444444 0.0 l 0.0 -44.44444444444444 M 577.7777777777777 222.22222222222223 l 44.44444444444444 0.0 l 0.0 44.44444444444444 l -44.44444444444444 0.0 l 0.0 -44.44444444444444 M 577.7777777777777 266.66666666666663 l 44.44444444444444 0.0 l 0.0 44.44444444444444 l -44.44444444444444 0.0 l 0.0 -44.44444444444444 M 577.7777777777777 311.1111111111111 l 44.44444444444444 0.0 l 0.0 44.44444444444444 l -44.44444444444444 0.0 l 0.0 -44.44444444444444 M 577.7777777777777 355.55555555555554 l 44.44444444444444 0.0 l 0.0 44.44444444444444 l -44.44444444444444 0.0 l 0.0 -44.44444444444444 M 577.7777777777777 444.44444444444446 l 44.44444444444444 0.0 l -44.44444444444444 44.44444444444444 l 0.0 -44.44444444444444 M 577.7777777777777 488.88888888888886 l 44.44444444444444 0.0 l 0.0 44.44444444444444 l -44.44444444444444 0.0 l 0.0 -44.44444444444444 M 577.7777777777777 533.3333333333333 l 44.44444444444444 0.0 l 0.0 44.44444444444444 l -44.44444444444444 0.0 l 0.0 -44.44444444444444 M 577.7777777777777 666.6666666666666 l 44.44444444444444 44.44444444444444 l -44.44444444444444 0.0 l 0.0 -44.44444444444444 M 577.7777777777777 755.5555555555555 l 44.44444444444444 0.0 l 0.0 44.44444444444444 l -44.44444444444444 0.0 l 0.0 -44.44444444444444 M 622.2222222222222 0.0 l 44.44444444444444 44.44444444444444 l -44.44444444444444 0.0 l 0.0 -44.44444444444444 M 622.2222222222222 44.44444444444444 l 44.44444444444444 0.0 l 0.0 44.44444444444444 l -44.44444444444444 0.0 l 0.0 -44.44444444444444 M 622.2222222222222 88.88888888888889 l 44.44444444444444 0.0 l 0.0 44.44444444444444 l -44.44444444444444 0.0 l 0.0 -44.44444444444444 M 622.2222222222222 133.33333333333331 l 44.44444444444444 0.0 l 0.0 44.44444444444444 l -44.44444444444444 0.0 l 0.0 -44.44444444444444 M 622.2222222222222 177.77777777777777 l 44.44444444444444 0.0 l 0.0 44.44444444444444 l -44.44444444444444 0.0 l 0.0 -44.44444444444444 M 622.2222222222222 266.66666666666663 l 44.44444444444444 44.44444444444444 l -44.44444444444444 0.0 l 0.0 -44.44444444444444 M 622.2222222222222 355.55555555555554 l 44.44444444444444 0.0 l -44.44444444444444 44.44444444444444 l 0.0 -44.44444444444444 M 622.2222222222222 444.44444444444446 m 44.44444444444444 0.0 l 0.0 44.44444444444444 l -44.44444444444444 0.0 l 44.44444444444444 -44.44444444444444 M 622.2222222222222 488.88888888888886 m 44.44444444444444 0.0 l 0.0 44.44444444444444 l -44.44444444444444 0.0 l 44.44444444444444 -44.44444444444444 M 622.2222222222222 533.3333333333333 l 44.44444444444444 44.44444444444444 l -44.44444444444444 0.0 l 0.0 -44.44444444444444 M 622.2222222222222 577.7777777777777 l 44.44444444444444 44.44444444444444 l -44.44444444444444 0.0 l 0.0 -44.44444444444444 M 622.2222222222222 755.5555555555555 l 44.44444444444444 0.0 l 0.0 44.44444444444444 l -44.44444444444444 0.0 l 0.0 -44.44444444444444 M 666.6666666666666 0.0 l 44.44444444444444 44.44444444444444 l -44.44444444444444 0.0 l 0.0 -44.44444444444444 M 666.6666666666666 44.44444444444444 l 44.44444444444444 0.0 l 0.0 44.44444444444444 l -44.44444444444444 0.0 l 0.0 -44.44444444444444 M 666.6666666666666 177.77777777777777 m 44.44444444444444 0.0 l 0.0 44.44444444444444 l -44.44444444444444 0.0 l 44.44444444444444 -44.44444444444444 M 666.6666666666666 266.66666666666663 l 44.44444444444444 0.0 l 0.0 44.44444444444444 l -44.44444444444444 0.0 l 0.0 -44.44444444444444 M 666.6666666666666 311.1111111111111 l 44.44444444444444 0.0 l 0.0 44.44444444444444 l -44.44444444444444 -44.44444444444444 M 666.6666666666666 355.55555555555554 l 44.44444444444444 0.0 l 0.0 44.44444444444444 l -44.44444444444444 0.0 l 0.0 -44.44444444444444 M 666.6666666666666 400.0 l 44.44444444444444 44.44444444444444 l -44.44444444444444 0.0 l 0.0 -44.44444444444444 M 666.6666666666666 444.44444444444446 m 44.44444444444444 0.0 l 0.0 44.44444444444444 l -44.44444444444444 0.0 l 44.44444444444444 -44.44444444444444 M 666.6666666666666 488.88888888888886 l 44.44444444444444 0.0 l -44.44444444444444 44.44444444444444 l 0.0 -44.44444444444444 M 666.6666666666666 533.3333333333333 l 44.44444444444444 0.0 l 0.0 44.44444444444444 l -44.44444444444444 0.0 l 0.0 -44.44444444444444 M 666.6666666666666 577.7777777777777 l 44.44444444444444 0.0 l 0.0 44.44444444444444 l -44.44444444444444 0.0 l 0.0 -44.44444444444444 M 666.6666666666666 622.2222222222222 l 44.44444444444444 0.0 l 0.0 44.44444444444444 l -44.44444444444444 0.0 l 0.0 -44.44444444444444 M 711.1111111111111 44.44444444444444 l 44.44444444444444 0.0 l 0.0 44.44444444444444 l -44.44444444444444 0.0 l 0.0 -44.44444444444444 M 711.1111111111111 133.33333333333331 l 44.44444444444444 0.0 l 0.0 44.44444444444444 l -44.44444444444444 0.0 l 0.0 -44.44444444444444 M 711.1111111111111 222.22222222222223 l 44.44444444444444 44.44444444444444 l -44.44444444444444 0.0 l 0.0 -44.44444444444444 M 711.1111111111111 266.66666666666663 l 44.44444444444444 0.0 l -44.44444444444444 44.44444444444444 l 0.0 -44.44444444444444 M 711.1111111111111 488.88888888888886 l 44.44444444444444 0.0 l 0.0 44.44444444444444 l -44.44444444444444 0.0 l 0.0 -44.44444444444444 M 711.1111111111111 577.7777777777777 l 44.44444444444444 0.0 l 0.0 44.44444444444444 l -44.44444444444444 0.0 l 0.0 -44.44444444444444 M 711.1111111111111 711.1111111111111 l 44.44444444444444 0.0 l 0.0 44.44444444444444 l -44.44444444444444 -44.44444444444444 M 711.1111111111111 755.5555555555555 l 44.44444444444444 0.0 l 0.0 44.44444444444444 l -44.44444444444444 0.0 l 0.0 -44.44444444444444 M 755.5555555555555 0.0 l 44.44444444444444 0.0 l -44.44444444444444 44.44444444444444 l 0.0 -44.44444444444444 M 755.5555555555555 44.44444444444444 l 44.44444444444444 0.0 l 0.0 44.44444444444444 l -44.44444444444444 0.0 l 0.0 -44.44444444444444 M 755.5555555555555 88.88888888888889 l 44.44444444444444 0.0 l 0.0 44.44444444444444 l -44.44444444444444 0.0 l 0.0 -44.44444444444444 M 755.5555555555555 133.33333333333331 l 44.44444444444444 0.0 l 0.0 44.44444444444444 l -44.44444444444444 -44.44444444444444 M 755.5555555555555 222.22222222222223 l 44.44444444444444 0.0 l -44.44444444444444 44.44444444444444 l 0.0 -44.44444444444444 M 755.5555555555555 311.1111111111111 l 44.44444444444444 0.0 l -44.44444444444444 44.44444444444444 l 0.0 -44.44444444444444 M 755.5555555555555 355.55555555555554 l 44.44444444444444 44.44444444444444 l -44.44444444444444 0.0 l 0.0 -44.44444444444444 M 755.5555555555555 577.7777777777777 l 44.44444444444444 0.0 l 0.0 44.44444444444444 l -44.44444444444444 0.0 l 0.0 -44.44444444444444 M 755.5555555555555 666.6666666666666 m 44.44444444444444 0.0 l 0.0 44.44444444444444 l -44.44444444444444 0.0 l 44.44444444444444 -44.44444444444444" fill="url(#gradient1)" stroke="black"></path></g></svg>