<svg version="1.1" xmlns="http://www.w3.org/2000/svg" viewBox="0 0 800 800" width="800.0" height="800.0"><defs ><radialGradient id="gradient1" fx="0.0" fy="0.0" fr="0.0" cx="0.5" cy="0.5" r="1.0"><stop offset="0.0%" stop-color="rgb(40.27018647940886,103.37655645671542,181.67737333124447)"></stop><stop offset="100.0%" stop-color="rgb(100.0596234914938,179.71331067618925,150.44905213271826)"></stop></radialGradient></defs><rect x="0.0" y="0.0" width="800.0" height="800.0" fill="url(#gradient1)"></rect><symbol ><path id="firefly" d="M 6.5613566,1.2820923 C 5.8076277,1.2760223 5.520561,1.7738464 5.3433431,2.7367839 5.2161564,2.5886651 5.0512428,2.5286026 4.8410482,2.5869222 3.514798,2.954897 0.18265107,10.228496 1.0883057,11.666988 1.9939603,13.105481 4.6190472,9.8606109 5.1624756,8.2020833 5.2144266,8.0435302 5.2659626,7.860333 5.3149211,7.6594808 5.9227168,8.4262896 7.0705105,8.4126949 7.6615479,7.5783488 7.7162339,7.8107431 7.7738315,8.0227333 7.8325968,8.2020833 8.3760251,9.860611 11.001628,13.105481 11.907284,11.666988 12.812939,10.228496 9.4807914,2.954897 8.154541,2.5869222 7.9799399,2.5384782 7.8364744,2.5721827 7.7199422,2.6696045 7.5796585,1.7290305 7.3193009,1.2881962 6.5613566,1.2820923 Z"></path></symbol><path fill="none" stroke="rgb(159.61546948375155,205.26552079065743,168.5740028255311)" stroke-width="3.112446774869977" opacity="0.1721899085932527" d=" M 0.0 0.0 C 968.7345879557356 400.0, 440.1619660021164 400.0, 800.0 800.0"></path><path fill="none" stroke="rgb(252.46585549791317,193.05602664300932,122.88794292633601)" stroke-width="3.7882245796781215" opacity="0.1801922858929776" d=" M 0.0 0.0 C 362.2136394891904 400.0, 188.63526724152229 400.0, 800.0 800.0"></path><path fill="none" stroke="rgb(189.15364386185536,207.3355357748422,143.04256016926374)" stroke-width="2.1989015898211326" opacity="0.06893427939958957" d=" M 0.0 0.0 C 349.70837935812017 400.0, 706.3806980182674 400.0, 800.0 800.0"></path><path fill="none" stroke="rgb(251.28529585640027,129.62498739104987,217.09237504723475)" stroke-width="2.9807772711790297" opacity="0.13384824195845893" d=" M 0.0 0.0 C 982.6677580815478 400.0, 581.3973208954334 400.0, 800.0 800.0"></path><path fill="none" stroke="rgb(17.9047331929454,196.48949890984596,70.16876906521294)" stroke-width="4.402542214993494" opacity="0.18008381467526657" d=" M 0.0 0.0 C -53.18413992226465 400.0, 792.3271943204751 400.0, 800.0 800.0"></path><path fill="none" stroke="rgb(221.15538847272387,185.8986443058828,88.09840268700708)" stroke-width="4.323749746069044" opacity="0.13833370672633888" d=" M 0.0 0.0 C 350.1346457237007 400.0, 742.4918823077794 400.0, 800.0 800.0"></path><use href="#firefly" fill="rgb(183.95834451507903,174.5900753744339,91.5481055646711)" fill-opacity="0.7592727096252853" transform=" translate(160.0, 336.16506756033476) scale(2.249373839240406) rotate(155.3524578428204)"></use><use href="#firefly" fill="rgb(183.95834451507903,174.5900753744339,91.5481055646711)" fill-opacity="0.8546230759564049" transform=" translate(320.0, 345.2782574276588) scale(8.948027148718559) rotate(137.9428770165855)"></use><use href="#firefly" fill="rgb(183.95834451507903,174.5900753744339,91.5481055646711)" fill-opacity="0.7862316353985029" transform=" translate(480.0, 465.307539822789) scale(1.919472076975568) rotate(160.2274177154053)"></use><use href="#firefly" fill="rgb(183.95834451507903,174.5900753744339,91.5481055646711)" fill-opacity="0.7482084788275791" transform=" translate(640.0, 535.2013865221294) scale(1.3908040386851945) rotate(157.12026477585937)"></use><use href="#firefly" fill="rgb(183.95834451507903,174.5900753744339,91.5481055646711)" fill-opacity="0.7764694080492012" transform=" translate(800.0, 458.0525547242768) scale(4.223454180517543) rotate(132.31585832353394)"></use><use href="#firefly" fill="rgb(183.95834451507903,174.5900753744339,91.5481055646711)" fill-opacity="0.7404765134812344" transform=" translate(960.0, 537.6951440593867) scale(2.3155663973218648) rotate(127.28160957883787)"></use></svg>