<svg version="1.1" xmlns="http://www.w3.org/2000/svg" viewBox="0 0 800 800" width="800.0" height="800.0"><defs ><radialGradient id="gradient1" fx="0.0" fy="0.0" fr="0.0" cx="0.5" cy="0.5" r="1.0"><stop offset="0.0%" stop-color="rgb(25.852617105935362,51.60337968455501,126.05294478074958)"></stop><stop offset="100.0%" stop-color="rgb(189.85514877183357,109.97300742218711,132.0865595224546)"></stop></radialGradient></defs><rect x="0.0" y="0.0" width="800.0" height="800.0" fill="url(#gradient1)"></rect><symbol ><path id="firefly" d="M 6.5613566,1.2820923 C 5.8076277,1.2760223 5.520561,1.7738464 5.3433431,2.7367839 5.2161564,2.5886651 5.0512428,2.5286026 4.8410482,2.5869222 3.514798,2.954897 0.18265107,10.228496 1.0883057,11.666988 1.9939603,13.105481 4.6190472,9.8606109 5.1624756,8.2020833 5.2144266,8.0435302 5.2659626,7.860333 5.3149211,7.6594808 5.9227168,8.4262896 7.0705105,8.4126949 7.6615479,7.5783488 7.7162339,7.8107431 7.7738315,8.0227333 7.8325968,8.2020833 8.3760251,9.860611 11.001628,13.105481 11.907284,11.666988 12.812939,10.228496 9.4807914,2.954897 8.154541,2.5869222 7.9799399,2.5384782 7.8364744,2.5721827 7.7199422,2.6696045 7.5796585,1.7290305 7.3193009,1.2881962 6.5613566,1.2820923 Z"></path></symbol><path fill="none" stroke="rgb(205.90070485631696,215.14970422427461,52.97929188602065)" stroke-width="3.5034505349151526" opacity="0.09974778028522346" d=" M 0.0 0.0 C -167.056346732137 400.0, 520.4455640540299 400.0, 800.0 800.0"></path><path fill="none" stroke="rgb(101.35744207456187,164.4755433538493,115.32889556142268)" stroke-width="2.454769282036092" opacity="0.050471768475491084" d=" M 0.0 0.0 C 891.2428681213203 400.0, 365.1754377230046 400.0, 800.0 800.0"></path><path fill="none" stroke="rgb(206.98075485822278,237.71819138815292,16.47240089345859)" stroke-width="3.711902283807961" opacity="0.15908382653651182" d=" M 0.0 0.0 C -139.44691076059058 400.0, 171.85055363208005 400.0, 800.0 800.0"></path><path fill="none" stroke="rgb(246.95269961198073,77.83601548414633,68.61145243173043)" stroke-width="1.4712032252745022" opacity="0.055802106530315615" d=" M 0.0 0.0 C 999.0410397775395 400.0, 185.51507669342243 400.0, 800.0 800.0"></path><path fill="none" stroke="rgb(122.7673719757696,25.009401399660923,63.09864779214042)" stroke-width="4.66586045493268" opacity="0.18203287746087832" d=" M 0.0 0.0 C 223.4992433079704 400.0, 846.1306303223953 400.0, 800.0 800.0"></path><path fill="none" stroke="rgb(217.327633567768,156.59693199691802,251.8863607811606)" stroke-width="4.041391048109984" opacity="0.12626356601412908" d=" M 0.0 0.0 C 430.8472099539714 400.0, -197.50521351438942 400.0, 800.0 800.0"></path><use href="#firefly" fill="rgb(78.60183408895477,134.32532658493048,14.340226509793593)" fill-opacity="0.8852607288967043" transform=" translate(160.0, 344.92109284799653) scale(9.07524115128275) rotate(137.54737440164342)"></use><use href="#firefly" fill="rgb(78.60183408895477,134.32532658493048,14.340226509793593)" fill-opacity="0.9356822244755065" transform=" translate(320.0, 386.7358039122331) scale(4.8368812096489116) rotate(155.98148625678698)"></use><use href="#firefly" fill="rgb(78.60183408895477,134.32532658493048,14.340226509793593)" fill-opacity="0.813330389251137" transform=" translate(480.0, 392.6136781098675) scale(2.823638476431829) rotate(132.94328956261322)"></use><use href="#firefly" fill="rgb(78.60183408895477,134.32532658493048,14.340226509793593)" fill-opacity="0.7854002182957146" transform=" translate(640.0, 389.1171146997066) scale(8.94821290545189) rotate(110.72529611987515)"></use><use href="#firefly" fill="rgb(78.60183408895477,134.32532658493048,14.340226509793593)" fill-opacity="0.8799758745999897" transform=" translate(800.0, 524.6315972009846) scale(7.06695442665258) rotate(119.95431634330555)"></use><use href="#firefly" fill="rgb(78.60183408895477,134.32532658493048,14.340226509793593)" fill-opacity="0.8849306487139013" transform=" translate(960.0, 600.863852308947) scale(7.276904025504682) rotate(143.09994917440488)"></use></svg>