<svg version="1.1" xmlns="http://www.w3.org/2000/svg" viewBox="0 0 800 800" width="800.0" height="800.0"><defs ><radialGradient id="gradient1" fx="0.0" fy="0.0" fr="0.0" cx="0.5" cy="0.5" r="1.0"><stop offset="0.0%" stop-color="rgb(221.54875521651655,192.70020209250973,158.11897908371438)"></stop><stop offset="100.0%" stop-color="rgb(221.62525855285355,252.82554748734415,84.49676652906886)"></stop></radialGradient></defs><rect x="0.0" y="0.0" width="800.0" height="800.0" fill="url(#gradient1)"></rect><symbol ><path id="firefly" d="M 6.5613566,1.2820923 C 5.8076277,1.2760223 5.520561,1.7738464 5.3433431,2.7367839 5.2161564,2.5886651 5.0512428,2.5286026 4.8410482,2.5869222 3.514798,2.954897 0.18265107,10.228496 1.0883057,11.666988 1.9939603,13.105481 4.6190472,9.8606109 5.1624756,8.2020833 5.2144266,8.0435302 5.2659626,7.860333 5.3149211,7.6594808 5.9227168,8.4262896 7.0705105,8.4126949 7.6615479,7.5783488 7.7162339,7.8107431 7.7738315,8.0227333 7.8325968,8.2020833 8.3760251,9.860611 11.001628,13.105481 11.907284,11.666988 12.812939,10.228496 9.4807914,2.954897 8.154541,2.5869222 7.9799399,2.5384782 7.8364744,2.5721827 7.7199422,2.6696045 7.5796585,1.7290305 7.3193009,1.2881962 6.5613566,1.2820923 Z"></path></symbol><path fill="none" stroke="rgb(156.46366240006682,182.1252501571588,3.5654659443985866)" stroke-width="4.751735666232824" opacity="0.19214438870561995" d=" M 0.0 0.0 C 3.3774582042070733 400.0, 630.0032146100011 400.0, 800.0 800.0"></path><path fill="none" stroke="rgb(207.13656932083435,23.29354355987525,12.963671872052561)" stroke-width="2.923218237539043" opacity="0.1583429845428984" d=" M 0.0 0.0 C 335.6798206727186 400.0, 278.7221481784818 400.0, 800.0 800.0"></path><path fill="none" stroke="rgb(232.14641607526835,237.92925895896056,109.67440678821465)" stroke-width="1.0357373644766037" opacity="0.11683241657606197" d=" M 0.0 0.0 C 974.4774979315498 400.0, -178.71993026451042 400.0, 800.0 800.0"></path><path fill="none" stroke="rgb(91.38206983828279,197.67639749791374,220.4826812295631)" stroke-width="2.490524442301333" opacity="0.1867039808762786" d=" M 0.0 0.0 C 447.9759785997668 400.0, -154.25651584359406 400.0, 800.0 800.0"></path><path fill="none" stroke="rgb(35.8907911734542,60.79019663821051,173.0084384994716)" stroke-width="4.561916870331666" opacity="0.0943511313343815" d=" M 0.0 0.0 C 732.6737867534823 400.0, 396.0733593773849 400.0, 800.0 800.0"></path><path fill="none" stroke="rgb(157.15690383653282,154.2076964508258,63.09759870361744)" stroke-width="4.441313893508815" opacity="0.1101289079083302" d=" M 0.0 0.0 C 378.83711700734364 400.0, 464.55586528404353 400.0, 800.0 800.0"></path><use href="#firefly" fill="rgb(162.58310256950213,37.75742256278569,182.51620768116462)" fill-opacity="0.7457065258854728" transform=" translate(160.0, 119.41876147185687) scale(7.306635299776895) rotate(112.94109890384951)"></use><use href="#firefly" fill="rgb(162.58310256950213,37.75742256278569,182.51620768116462)" fill-opacity="0.8014017998429979" transform=" translate(320.0, 193.89195574333786) scale(3.2941525336350392) rotate(105.91972267570249)"></use><use href="#firefly" fill="rgb(162.58310256950213,37.75742256278569,182.51620768116462)" fill-opacity="0.7085742389316986" transform=" translate(480.0, 359.7378484937707) scale(4.291454796676754) rotate(117.2644958127185)"></use><use href="#firefly" fill="rgb(162.58310256950213,37.75742256278569,182.51620768116462)" fill-opacity="0.8266805288307022" transform=" translate(640.0, 255.72906525755576) scale(2.5476170169437378) rotate(120.28036561221994)"></use><use href="#firefly" fill="rgb(162.58310256950213,37.75742256278569,182.51620768116462)" fill-opacity="0.7127588860303833" transform=" translate(800.0, 275.34473856015666) scale(9.500158847997335) rotate(110.25680280627708)"></use><use href="#firefly" fill="rgb(162.58310256950213,37.75742256278569,182.51620768116462)" fill-opacity="0.7088048891651326" transform=" translate(960.0, 402.2978427428398) scale(1.1011984201863996) rotate(120.20431379084249)"></use></svg>