<svg xmlns="http://www.w3.org/2000/svg" width="616.42" height="1137.12"><g style="opacity:.29967022"><circle cx="536.98" cy="613.78" r="75" fill="#3e3ce8"/><circle cx="518.5" cy="633.61" r="75" fill="#3e3ce8"/><circle cx="500.76" cy="652.66" r="75" fill="#3e3ce8"/><circle cx="483.73" cy="670.94" r="75" fill="#3f3ce8"/><circle cx="467.38" cy="688.5" r="75" fill="#3f3ce8"/><circle cx="451.69" cy="705.35" r="75" fill="#3f3ce8"/><circle cx="436.62" cy="721.52" r="75" fill="#3f3de8"/><circle cx="422.16" cy="737.05" r="75" fill="#403de8"/><circle cx="408.27" cy="751.96" r="75" fill="#403de8"/><circle cx="394.94" cy="766.27" r="75" fill="#403de8"/><circle cx="382.14" cy="780.01" r="75" fill="#413de8"/><circle cx="369.86" cy="793.2" r="75" fill="#413de8"/><circle cx="358.06" cy="805.86" r="75" fill="#413de8"/><circle cx="346.74" cy="818.02" r="75" fill="#413ee8"/><circle cx="335.87" cy="829.68" r="75" fill="#423ee8"/><circle cx="325.43" cy="827.24" r="75" fill="#423ee8"/><circle cx="315.42" cy="824.9" r="75" fill="#423ee8"/><circle cx="305.8" cy="822.65" r="75" fill="#423ee8"/><circle cx="296.57" cy="820.5" r="75" fill="#433ee8"/><circle cx="287.71" cy="818.42" r="75" fill="#433fe8"/><circle cx="279.2" cy="816.43" r="75" fill="#433fe8"/><circle cx="271.03" cy="814.52" r="75" fill="#443fe8"/><circle cx="263.19" cy="812.69" r="75" fill="#443fe8"/><circle cx="255.66" cy="810.93" r="75" fill="#443fe8"/><circle cx="248.43" cy="809.24" r="75" fill="#443fe8"/><circle cx="241.5" cy="807.62" r="75" fill="#453fe8"/><circle cx="234.84" cy="806.06" r="75" fill="#4540e8"/><circle cx="228.44" cy="804.57" r="75" fill="#4540e8"/><circle cx="222.31" cy="803.13" r="75" fill="#4540e8"/><circle cx="216.41" cy="801.75" r="75" fill="#4640e8"/><circle cx="210.76" cy="800.43" r="75" fill="#4640e8"/><circle cx="205.33" cy="799.16" r="75" fill="#4640e8"/><circle cx="200.11" cy="797.94" r="75" fill="#4741e8"/><circle cx="195.11" cy="796.77" r="75" fill="#4741e8"/><circle cx="190.3" cy="795.65" r="75" fill="#4741e8"/><circle cx="185.69" cy="794.57" r="75" fill="#4741e8"/><circle cx="181.26" cy="793.54" r="75" fill="#4841e8"/><circle cx="177.01" cy="792.54" r="75" fill="#4841e8"/><circle cx="172.93" cy="791.59" r="75" fill="#4841e8"/><circle cx="169.02" cy="790.67" r="75" fill="#4842e8"/><circle cx="165.25" cy="789.79" r="75" fill="#4942e8"/><circle cx="161.64" cy="788.95" r="75" fill="#4942e8"/><circle cx="158.18" cy="788.14" r="75" fill="#4942e8"/><circle cx="154.85" cy="787.36" r="75" fill="#4a42e8"/><circle cx="151.66" cy="786.61" r="75" fill="#4a42e8"/><circle cx="148.59" cy="785.9" r="75" fill="#4a43e8"/><circle cx="145.65" cy="785.21" r="75" fill="#4a43e8"/><circle cx="142.82" cy="784.55" r="75" fill="#4b43e8"/><circle cx="140.11" cy="783.91" r="75" fill="#4b43e9"/><circle cx="137.5" cy="783.31" r="75" fill="#4b43e9"/><circle cx="135" cy="782.72" r="75" fill="#4b43e9"/><circle cx="132.6" cy="782.16" r="75" fill="#4c43e9"/><circle cx="130.3" cy="781.62" r="75" fill="#4c44e9"/><circle cx="128.09" cy="781.1" r="75" fill="#4c44e9"/><circle cx="125.96" cy="780.61" r="75" fill="#4c44e9"/><circle cx="123.93" cy="780.13" r="75" fill="#4d44e9"/><circle cx="121.97" cy="779.67" r="75" fill="#4d44e9"/><circle cx="120.09" cy="779.23" r="75" fill="#4d44e9"/><circle cx="118.29" cy="778.81" r="75" fill="#4e44e9"/><circle cx="116.55" cy="778.41" r="75" fill="#4e45e9"/><circle cx="114.89" cy="778.02" r="75" fill="#4e45e9"/><circle cx="113.3" cy="777.65" r="75" fill="#4e45e9"/><circle cx="111.76" cy="777.29" r="75" fill="#4f45e9"/><circle cx="110.29" cy="776.94" r="75" fill="#4f45e9"/><circle cx="108.88" cy="776.61" r="75" fill="#4f45e9"/><circle cx="107.53" cy="776.3" r="75" fill="#4f46e9"/><circle cx="106.23" cy="775.99" r="75" fill="#5046e9"/><circle cx="104.98" cy="775.7" r="75" fill="#5046e9"/><circle cx="103.78" cy="775.42" r="75" fill="#5046e9"/><circle cx="102.63" cy="775.15" r="75" fill="#5046e9"/><circle cx="101.52" cy="774.89" r="75" fill="#5146e9"/><circle cx="100.46" cy="774.64" r="75" fill="#5146e9"/><circle cx="99.44" cy="774.41" r="75" fill="#5147e9"/><circle cx="98.46" cy="774.18" r="75" fill="#5247e9"/><circle cx="97.53" cy="773.96" r="75" fill="#5247e9"/><circle cx="96.62" cy="773.75" r="75" fill="#5247e9"/><circle cx="95.76" cy="773.55" r="75" fill="#5247e9"/><circle cx="94.93" cy="773.35" r="75" fill="#5347e9"/><circle cx="94.13" cy="773.16" r="75" fill="#5348e9"/><circle cx="93.37" cy="772.99" r="75" fill="#5348e9"/><circle cx="92.63" cy="772.81" r="75" fill="#5348e9"/><circle cx="91.93" cy="772.65" r="75" fill="#5448e9"/><circle cx="91.25" cy="772.49" r="75" fill="#5448e9"/><circle cx="90.6" cy="772.34" r="75" fill="#5448e9"/><circle cx="89.98" cy="772.19" r="75" fill="#5448e9"/><circle cx="89.38" cy="772.05" r="75" fill="#5549e9"/><circle cx="88.8" cy="771.92" r="75" fill="#5549e9"/><circle cx="88.25" cy="771.79" r="75" fill="#5549e9"/><circle cx="87.72" cy="771.67" r="75" fill="#5549e9"/><circle cx="87.21" cy="771.55" r="75" fill="#5649e9"/><circle cx="86.72" cy="771.43" r="75" fill="#5649e9"/><circle cx="86.25" cy="771.32" r="75" fill="#5649e9"/><circle cx="85.8" cy="771.22" r="75" fill="#564ae9"/><circle cx="85.37" cy="771.12" r="75" fill="#574ae9"/><circle cx="84.96" cy="771.02" r="75" fill="#574ae9"/><circle cx="84.56" cy="770.93" r="75" fill="#574ae9"/><circle cx="84.17" cy="770.84" r="75" fill="#584ae9"/><circle cx="83.81" cy="770.75" r="75" fill="#584ae9"/><circle cx="83.46" cy="770.67" r="75" fill="#584be9"/><circle cx="83.12" cy="770.59" r="75" fill="#584be9"/><circle cx="82.79" cy="770.51" r="75" fill="#594be9"/><circle cx="82.48" cy="770.44" r="75" fill="#594be9"/><circle cx="82.18" cy="770.37" r="75" fill="#594bea"/><circle cx="81.89" cy="770.3" r="75" fill="#594bea"/><circle cx="81.62" cy="770.24" r="75" fill="#5a4bea"/><circle cx="81.35" cy="770.18" r="75" fill="#5a4cea"/><circle cx="81.1" cy="770.12" r="75" fill="#5a4cea"/><circle cx="80.86" cy="770.06" r="75" fill="#5a4cea"/><circle cx="80.62" cy="770.01" r="75" fill="#5b4cea"/><circle cx="80.4" cy="769.95" r="75" fill="#5b4cea"/><circle cx="80.18" cy="769.9" r="75" fill="#5b4cea"/><circle cx="79.97" cy="769.85" r="75" fill="#5b4dea"/><circle cx="79.77" cy="769.81" r="75" fill="#5c4dea"/><circle cx="79.58" cy="769.76" r="75" fill="#5c4dea"/><circle cx="79.4" cy="769.72" r="75" fill="#5c4dea"/><circle cx="79.22" cy="769.68" r="75" fill="#5c4dea"/><circle cx="79.05" cy="769.64" r="75" fill="#5d4dea"/><circle cx="78.89" cy="769.6" r="75" fill="#5d4dea"/><circle cx="78.74" cy="769.57" r="75" fill="#5d4eea"/><circle cx="78.59" cy="769.53" r="75" fill="#5d4eea"/><circle cx="78.44" cy="769.5" r="75" fill="#5e4eea"/><circle cx="78.31" cy="769.46" r="75" fill="#5e4eea"/><circle cx="78.17" cy="769.43" r="75" fill="#5e4eea"/><circle cx="78.05" cy="769.4" r="75" fill="#5e4eea"/><circle cx="77.92" cy="769.38" r="75" fill="#5f4fea"/><circle cx="77.81" cy="769.35" r="75" fill="#5f4fea"/><circle cx="77.7" cy="769.32" r="75" fill="#5f4fea"/><circle cx="77.59" cy="769.3" r="75" fill="#5f4fea"/><circle cx="77.48" cy="769.27" r="75" fill="#604fea"/><circle cx="77.38" cy="769.25" r="75" fill="#604fea"/><circle cx="77.29" cy="769.23" r="75" fill="#604fea"/><circle cx="77.2" cy="769.21" r="75" fill="#6050ea"/><circle cx="77.11" cy="769.18" r="75" fill="#6150ea"/><circle cx="77.02" cy="769.17" r="75" fill="#6150ea"/><circle cx="76.94" cy="769.15" r="75" fill="#6150ea"/><circle cx="76.87" cy="769.13" r="75" fill="#6150ea"/><circle cx="76.79" cy="769.11" r="75" fill="#6250ea"/><circle cx="76.72" cy="769.09" r="75" fill="#6250ea"/><circle cx="76.65" cy="769.08" r="75" fill="#6251ea"/><circle cx="76.58" cy="769.06" r="75" fill="#6251ea"/><circle cx="76.52" cy="769.05" r="75" fill="#6351ea"/><circle cx="76.46" cy="769.03" r="75" fill="#6351ea"/><circle cx="76.4" cy="769.02" r="75" fill="#6351ea"/><circle cx="76.35" cy="769.01" r="75" fill="#6351ea"/><circle cx="76.29" cy="768.99" r="75" fill="#6452ea"/><circle cx="76.24" cy="768.98" r="75" fill="#6452ea"/><circle cx="76.19" cy="768.97" r="75" fill="#6452ea"/><circle cx="76.14" cy="768.96" r="75" fill="#6452ea"/><circle cx="76.1" cy="768.95" r="75" fill="#6552ea"/><circle cx="76.05" cy="768.94" r="75" fill="#6552ea"/><circle cx="76.01" cy="768.93" r="75" fill="#6552ea"/><circle cx="75.97" cy="768.92" r="75" fill="#6553ea"/><circle cx="75.93" cy="768.91" r="75" fill="#6653ea"/><circle cx="75.89" cy="768.9" r="75" fill="#6653ea"/><circle cx="75.86" cy="768.89" r="75" fill="#6653ea"/><circle cx="75.82" cy="768.88" r="75" fill="#6653eb"/><circle cx="75.79" cy="768.88" r="75" fill="#6753eb"/><circle cx="75.76" cy="768.87" r="75" fill="#6754eb"/><circle cx="75.73" cy="770.01" r="75" fill="#6754eb"/><circle cx="75.7" cy="771.11" r="75" fill="#6754eb"/><circle cx="75.67" cy="772.16" r="75" fill="#6854eb"/><circle cx="75.64" cy="773.18" r="75" fill="#6854eb"/><circle cx="75.62" cy="774.15" r="75" fill="#6854eb"/><circle cx="75.59" cy="775.08" r="75" fill="#6854eb"/><circle cx="75.57" cy="775.97" r="75" fill="#6955eb"/><circle cx="75.55" cy="776.83" r="75" fill="#6955eb"/><circle cx="75.53" cy="777.66" r="75" fill="#6955eb"/><circle cx="75.5" cy="778.45" r="75" fill="#6955eb"/><circle cx="75.48" cy="779.21" r="75" fill="#6a55eb"/><circle cx="75.46" cy="779.94" r="75" fill="#6a55eb"/><circle cx="75.45" cy="780.64" r="75" fill="#6a56eb"/><circle cx="75.43" cy="781.31" r="75" fill="#6a56eb"/><circle cx="75.41" cy="781.96" r="75" fill="#6b56eb"/><circle cx="75.39" cy="782.58" r="75" fill="#6b56eb"/><circle cx="75.38" cy="783.17" r="75" fill="#6b56eb"/><circle cx="75.36" cy="783.74" r="75" fill="#6b56eb"/><circle cx="75.35" cy="784.29" r="75" fill="#6c56eb"/><circle cx="75.33" cy="784.82" r="75" fill="#6c57eb"/><circle cx="75.32" cy="785.32" r="75" fill="#6c57eb"/><circle cx="75.31" cy="785.81" r="75" fill="#6c57eb"/><circle cx="75.3" cy="786.28" r="75" fill="#6d57eb"/><circle cx="75.28" cy="786.72" r="75" fill="#6d57eb"/><circle cx="75.27" cy="787.15" r="75" fill="#6d57eb"/><circle cx="75.26" cy="787.56" r="75" fill="#6d58eb"/><circle cx="75.25" cy="787.96" r="75" fill="#6e58eb"/><circle cx="75.24" cy="788.34" r="75" fill="#6e58eb"/><circle cx="75.23" cy="788.7" r="75" fill="#6e58eb"/><circle cx="75.22" cy="789.05" r="75" fill="#6e58eb"/><circle cx="75.21" cy="789.39" r="75" fill="#6e58eb"/><circle cx="75.2" cy="789.71" r="75" fill="#6f58eb"/><circle cx="75.2" cy="790.02" r="75" fill="#6f59eb"/><circle cx="75.19" cy="790.32" r="75" fill="#6f59eb"/><circle cx="75.18" cy="790.6" r="75" fill="#6f59eb"/><circle cx="75.17" cy="790.88" r="75" fill="#7059eb"/><circle cx="75.17" cy="791.14" r="75" fill="#7059eb"/><circle cx="75.16" cy="791.39" r="75" fill="#7059eb"/><circle cx="75.15" cy="791.64" r="75" fill="#7059eb"/><circle cx="75.15" cy="791.87" r="75" fill="#715aeb"/><circle cx="75.14" cy="792.09" r="75" fill="#715aeb"/><circle cx="75.14" cy="792.31" r="75" fill="#715aeb"/><circle cx="75.13" cy="792.51" r="75" fill="#715aeb"/><circle cx="75.12" cy="792.71" r="75" fill="#725aeb"/><circle cx="75.12" cy="792.9" r="75" fill="#725aeb"/><circle cx="75.11" cy="793.08" r="75" fill="#725beb"/><circle cx="75.11" cy="793.26" r="75" fill="#725beb"/><circle cx="75.11" cy="793.43" r="75" fill="#735beb"/><circle cx="75.1" cy="793.59" r="75" fill="#735beb"/><circle cx="75.1" cy="793.74" r="75" fill="#735beb"/><circle cx="75.09" cy="793.89" r="75" fill="#735beb"/><circle cx="75.09" cy="794.03" r="75" fill="#735bec"/><circle cx="75.09" cy="794.17" r="75" fill="#745cec"/><circle cx="75.08" cy="794.3" r="75" fill="#745cec"/><circle cx="75.08" cy="794.43" r="75" fill="#745cec"/><circle cx="75.08" cy="794.55" r="75" fill="#745cec"/><circle cx="75.07" cy="794.66" r="75" fill="#755cec"/><circle cx="75.07" cy="794.78" r="75" fill="#755cec"/><circle cx="75.07" cy="794.88" r="75" fill="#755dec"/><circle cx="75.06" cy="794.99" r="75" fill="#755dec"/><circle cx="75.06" cy="795.08" r="75" fill="#765dec"/><circle cx="75.06" cy="795.18" r="75" fill="#765dec"/><circle cx="75.06" cy="795.27" r="75" fill="#765dec"/><circle cx="75.05" cy="795.36" r="75" fill="#765dec"/><circle cx="75.05" cy="795.44" r="75" fill="#775dec"/><circle cx="75.05" cy="806.2" r="75" fill="#775eec"/><circle cx="75.05" cy="816.53" r="75" fill="#775eec"/><circle cx="75.05" cy="826.45" r="75" fill="#775eec"/><circle cx="75.04" cy="835.97" r="75" fill="#775eec"/><circle cx="75.04" cy="845.11" r="75" fill="#785eec"/><circle cx="75.04" cy="853.89" r="75" fill="#785eec"/><circle cx="75.04" cy="862.31" r="75" fill="#785eec"/><circle cx="75.04" cy="870.4" r="75" fill="#785fec"/><circle cx="75.04" cy="878.16" r="75" fill="#795fec"/><circle cx="75.03" cy="885.61" r="75" fill="#795fec"/><circle cx="75.03" cy="892.77" r="75" fill="#795fec"/><circle cx="75.03" cy="899.64" r="75" fill="#795fec"/><circle cx="75.03" cy="906.23" r="75" fill="#7a5fec"/><circle cx="75.03" cy="912.56" r="75" fill="#7a60ec"/><circle cx="75.03" cy="918.64" r="75" fill="#7a60ec"/><circle cx="75.03" cy="924.47" r="75" fill="#7a60ec"/><circle cx="75.03" cy="930.07" r="75" fill="#7a60ec"/><circle cx="75.02" cy="935.45" r="75" fill="#7b60ec"/><circle cx="75.02" cy="940.61" r="75" fill="#7b60ec"/><circle cx="75.02" cy="945.57" r="75" fill="#7b60ec"/><circle cx="75.02" cy="950.32" r="75" fill="#7b61ec"/><circle cx="75.02" cy="954.89" r="75" fill="#7c61ec"/><circle cx="75.02" cy="959.27" r="75" fill="#7c61ec"/><circle cx="75.02" cy="963.48" r="75" fill="#7c61ec"/><circle cx="75.02" cy="967.52" r="75" fill="#7c61ec"/><circle cx="75.02" cy="971.4" r="75" fill="#7d61ec"/><circle cx="75.02" cy="975.12" r="75" fill="#7d62ec"/><circle cx="75.02" cy="978.7" r="75" fill="#7d62ec"/><circle cx="75.01" cy="982.13" r="75" fill="#7d62ec"/><circle cx="75.01" cy="985.42" r="75" fill="#7d62ec"/><circle cx="75.01" cy="988.58" r="75" fill="#7e62ec"/><circle cx="75.01" cy="991.62" r="75" fill="#7e62ec"/><circle cx="75.01" cy="994.53" r="75" fill="#7e62ec"/><circle cx="75.01" cy="997.33" r="75" fill="#7e63ec"/><circle cx="75.01" cy="1000.02" r="75" fill="#7f63ec"/><circle cx="75.01" cy="1002.6" r="75" fill="#7f63ec"/><circle cx="75.01" cy="1005.07" r="75" fill="#7f63ec"/><circle cx="75.01" cy="1007.45" r="75" fill="#7f63ec"/><circle cx="75.01" cy="1009.73" r="75" fill="#8063ec"/><circle cx="75.01" cy="1011.92" r="75" fill="#8064ec"/><circle cx="75.01" cy="1014.02" r="75" fill="#8064ed"/><circle cx="75.01" cy="1016.04" r="75" fill="#8064ed"/><circle cx="75.01" cy="1017.98" r="75" fill="#8064ed"/><circle cx="75.01" cy="1019.84" r="75" fill="#8164ed"/><circle cx="75.01" cy="1021.62" r="75" fill="#8164ed"/><circle cx="75.01" cy="1023.34" r="75" fill="#8164ed"/><circle cx="75.01" cy="1024.98" r="75" fill="#8165ed"/><circle cx="75.01" cy="1026.56" r="75" fill="#8265ed"/><circle cx="75.01" cy="1028.08" r="75" fill="#8265ed"/><circle cx="75.01" cy="1029.54" r="75" fill="#8265ed"/><circle cx="75.01" cy="1030.94" r="75" fill="#8265ed"/><circle cx="75" cy="1032.28" r="75" fill="#8265ed"/><circle cx="75" cy="1033.57" r="75" fill="#8365ed"/><circle cx="75" cy="1034.8" r="75" fill="#8366ed"/><circle cx="75" cy="1035.99" r="75" fill="#8366ed"/><circle cx="75" cy="1037.13" r="75" fill="#8366ed"/><circle cx="75" cy="1038.22" r="75" fill="#8466ed"/><circle cx="75" cy="1039.27" r="75" fill="#8466ed"/><circle cx="75" cy="1040.28" r="75" fill="#8466ed"/><circle cx="75" cy="1041.25" r="75" fill="#8467ed"/><circle cx="75" cy="1042.18" r="75" fill="#8467ed"/><circle cx="75" cy="1043.07" r="75" fill="#8567ed"/><circle cx="75" cy="1043.93" r="75" fill="#8567ed"/><circle cx="75" cy="1044.75" r="75" fill="#8567ed"/><circle cx="75" cy="1045.54" r="75" fill="#8567ed"/><circle cx="75" cy="1046.3" r="75" fill="#8667ed"/><circle cx="75" cy="1047.02" r="75" fill="#8668ed"/><circle cx="75" cy="1047.72" r="75" fill="#8668ed"/><circle cx="75" cy="1048.39" r="75" fill="#8668ed"/><circle cx="75" cy="1049.04" r="75" fill="#8668ed"/><circle cx="75" cy="1049.65" r="75" fill="#8768ed"/><circle cx="75" cy="1050.25" r="75" fill="#8768ed"/><circle cx="75" cy="1050.82" r="75" fill="#8769ed"/><circle cx="75" cy="1051.36" r="75" fill="#8769ed"/><circle cx="75" cy="1051.89" r="75" fill="#8869ed"/><circle cx="75" cy="1052.39" r="75" fill="#8869ed"/><circle cx="75" cy="1052.88" r="75" fill="#8869ed"/><circle cx="75" cy="1053.34" r="75" fill="#8869ed"/><circle cx="75" cy="1053.79" r="75" fill="#8869ed"/><circle cx="75" cy="1054.21" r="75" fill="#896aed"/><circle cx="75" cy="1054.62" r="75" fill="#896aed"/><circle cx="75" cy="1055.02" r="75" fill="#896aed"/><circle cx="75" cy="1055.4" r="75" fill="#896aed"/><circle cx="75" cy="1055.76" r="75" fill="#8a6aed"/><circle cx="75" cy="1056.11" r="75" fill="#8a6aed"/><circle cx="75" cy="1056.44" r="75" fill="#8a6aed"/><circle cx="75" cy="1056.77" r="75" fill="#8a6bed"/><circle cx="75" cy="1057.07" r="75" fill="#8a6bed"/><circle cx="75" cy="1057.37" r="75" fill="#8b6bed"/><circle cx="75" cy="1057.65" r="75" fill="#8b6bed"/><circle cx="75" cy="1057.93" r="75" fill="#8b6bed"/><circle cx="75" cy="1058.19" r="75" fill="#8b6bed"/><circle cx="75" cy="1058.44" r="75" fill="#8b6ced"/><circle cx="75" cy="1058.68" r="75" fill="#8c6ced"/><circle cx="75" cy="1058.92" r="75" fill="#8c6cee"/><circle cx="75" cy="1059.14" r="75" fill="#8c6cee"/><circle cx="75" cy="1059.35" r="75" fill="#8c6cee"/><circle cx="75" cy="1059.56" r="75" fill="#8d6cee"/><circle cx="75" cy="1059.75" r="75" fill="#8d6dee"/><circle cx="75" cy="1059.94" r="75" fill="#8d6dee"/><circle cx="75" cy="1060.12" r="75" fill="#8d6dee"/><circle cx="75" cy="1060.3" r="75" fill="#8d6dee"/><circle cx="75" cy="1060.47" r="75" fill="#8e6dee"/><circle cx="75" cy="1060.63" r="75" fill="#8e6dee"/><circle cx="75" cy="1060.78" r="75" fill="#8e6dee"/><circle cx="75" cy="1060.93" r="75" fill="#8e6eee"/><circle cx="106.48" cy="1061.07" r="75" fill="#8e6eee"/><circle cx="136.7" cy="1061.21" r="75" fill="#8f6eee"/><circle cx="165.71" cy="1061.34" r="75" fill="#8f6eee"/><circle cx="193.56" cy="1061.46" r="75" fill="#8f6eee"/><circle cx="220.3" cy="1061.58" r="75" fill="#8f6eee"/><circle cx="245.97" cy="1061.7" r="75" fill="#906eee"/><circle cx="270.61" cy="1061.81" r="75" fill="#906fee"/><circle cx="294.27" cy="1061.92" r="75" fill="#906fee"/><circle cx="316.98" cy="1062.02" r="75" fill="#906fee"/><circle cx="338.78" cy="1062.12" r="75" fill="#906fee"/><circle cx="359.71" cy="1025.76" r="75" fill="#916fee"/><circle cx="379.8" cy="990.86" r="75" fill="#916fee"/><circle cx="399.09" cy="957.35" r="75" fill="#9170ee"/><circle cx="417.6" cy="925.19" r="75" fill="#9170ee"/><circle cx="435.38" cy="894.31" r="75" fill="#9170ee"/><circle cx="452.44" cy="864.66" r="75" fill="#9270ee"/><circle cx="468.83" cy="836.2" r="75" fill="#9270ee"/><circle cx="484.55" cy="808.88" r="75" fill="#9270ee"/><circle cx="499.65" cy="782.66" r="75" fill="#9270ee"/><circle cx="514.15" cy="757.48" r="75" fill="#9271ee"/><circle cx="528.06" cy="733.31" r="75" fill="#9371ee"/><circle cx="541.42" cy="710.1" r="75" fill="#9371ee"/><circle cx="530.06" cy="687.83" r="75" fill="#9371ee"/><circle cx="519.15" cy="666.44" r="75" fill="#9371ee"/><circle cx="508.68" cy="645.91" r="75" fill="#9371ee"/><circle cx="498.63" cy="626.2" r="75" fill="#9472ee"/><circle cx="488.99" cy="607.28" r="75" fill="#9472ee"/><circle cx="479.72" cy="589.12" r="75" fill="#9472ee"/><circle cx="470.83" cy="571.68" r="75" fill="#9472ee"/><circle cx="462.3" cy="554.94" r="75" fill="#9572ee"/><circle cx="454.1" cy="538.87" r="75" fill="#9572ee"/><circle cx="446.23" cy="523.45" r="75" fill="#9572ee"/><circle cx="438.68" cy="508.64" r="75" fill="#9573ee"/><circle cx="431.43" cy="494.42" r="75" fill="#9573ee"/><circle cx="424.47" cy="480.77" r="75" fill="#9673ee"/><circle cx="417.79" cy="467.67" r="75" fill="#9673ee"/><circle cx="411.38" cy="455.09" r="75" fill="#9673ee"/><circle cx="405.22" cy="443.01" r="75" fill="#9673ee"/><circle cx="399.31" cy="431.42" r="75" fill="#9673ee"/><circle cx="393.63" cy="420.29" r="75" fill="#9774ee"/><circle cx="388.18" cy="409.61" r="75" fill="#9774ee"/><circle cx="382.95" cy="399.35" r="75" fill="#9774ee"/><circle cx="377.93" cy="389.5" r="75" fill="#9774ef"/><circle cx="373.11" cy="380.05" r="75" fill="#9774ef"/><circle cx="368.48" cy="370.98" r="75" fill="#9874ef"/><circle cx="364.04" cy="362.27" r="75" fill="#9875ef"/><circle cx="359.78" cy="353.9" r="75" fill="#9875ef"/><circle cx="355.68" cy="345.88" r="75" fill="#9875ef"/><circle cx="351.75" cy="338.17" r="75" fill="#9875ef"/><circle cx="347.98" cy="330.77" r="75" fill="#9975ef"/><circle cx="344.36" cy="323.67" r="75" fill="#9975ef"/><circle cx="340.88" cy="316.85" r="75" fill="#9975ef"/><circle cx="337.54" cy="310.3" r="75" fill="#9976ef"/><circle cx="334.34" cy="304.02" r="75" fill="#9976ef"/><circle cx="331.26" cy="297.98" r="75" fill="#9a76ef"/><circle cx="328.31" cy="292.19" r="75" fill="#9a76ef"/><circle cx="325.47" cy="286.63" r="75" fill="#9a76ef"/><circle cx="322.75" cy="281.3" r="75" fill="#9a76ef"/><circle cx="320.14" cy="276.17" r="75" fill="#9a77ef"/><circle cx="317.63" cy="271.25" r="75" fill="#9b77ef"/><circle cx="308.25" cy="266.53" r="75" fill="#9b77ef"/><circle cx="299.25" cy="262" r="75" fill="#9b77ef"/><circle cx="290.6" cy="257.64" r="75" fill="#9b77ef"/><circle cx="282.3" cy="253.47" r="75" fill="#9b77ef"/><circle cx="274.34" cy="249.46" r="75" fill="#9c77ef"/><circle cx="266.69" cy="245.61" r="75" fill="#9c78ef"/><circle cx="259.35" cy="241.91" r="75" fill="#9c78ef"/><circle cx="252.3" cy="238.36" r="75" fill="#9c78ef"/><circle cx="245.53" cy="234.95" r="75" fill="#9c78ef"/><circle cx="239.04" cy="231.68" r="75" fill="#9d78ef"/><circle cx="232.8" cy="228.54" r="75" fill="#9d78ef"/><circle cx="226.81" cy="225.53" r="75" fill="#9d79ef"/><circle cx="221.07" cy="222.64" r="75" fill="#9d79ef"/><circle cx="215.55" cy="219.86" r="75" fill="#9d79ef"/><circle cx="210.25" cy="217.19" r="75" fill="#9e79ef"/><circle cx="205.17" cy="214.63" r="75" fill="#9e79ef"/><circle cx="200.29" cy="212.18" r="75" fill="#9e79ef"/><circle cx="195.6" cy="209.82" r="75" fill="#9e79ef"/><circle cx="191.1" cy="207.55" r="75" fill="#9e7aef"/><circle cx="186.78" cy="205.38" r="75" fill="#9f7aef"/><circle cx="182.64" cy="203.29" r="75" fill="#9f7aef"/><circle cx="178.66" cy="201.29" r="75" fill="#9f7aef"/><circle cx="174.84" cy="199.36" r="75" fill="#9f7aef"/><circle cx="171.17" cy="197.52" r="75" fill="#9f7aef"/><circle cx="167.65" cy="195.74" r="75" fill="#a07aef"/><circle cx="164.27" cy="194.04" r="75" fill="#a07bef"/><circle cx="161.02" cy="192.41" r="75" fill="#a07bef"/><circle cx="157.91" cy="190.84" r="75" fill="#a07bef"/><circle cx="154.92" cy="189.33" r="75" fill="#a07bef"/><circle cx="152.04" cy="187.89" r="75" fill="#a17bef"/><circle cx="149.29" cy="186.5" r="75" fill="#a17bef"/><circle cx="146.64" cy="185.17" r="75" fill="#a17cef"/><circle cx="144.1" cy="183.89" r="75" fill="#a17cef"/><circle cx="141.66" cy="182.66" r="75" fill="#a17cef"/><circle cx="139.32" cy="181.48" r="75" fill="#a27cef"/><circle cx="137.07" cy="180.35" r="75" fill="#a27cef"/><circle cx="134.92" cy="179.27" r="75" fill="#a27cf0"/><circle cx="132.85" cy="178.22" r="75" fill="#a27cf0"/><circle cx="130.86" cy="177.22" r="75" fill="#a27df0"/><circle cx="128.95" cy="176.26" r="75" fill="#a37df0"/><circle cx="127.12" cy="175.34" r="75" fill="#a37df0"/><circle cx="125.36" cy="174.45" r="75" fill="#a37df0"/><circle cx="123.67" cy="173.6" r="75" fill="#a37df0"/><circle cx="122.05" cy="172.79" r="75" fill="#a37df0"/><circle cx="120.49" cy="172" r="75" fill="#a47ef0"/><circle cx="119" cy="171.25" r="75" fill="#a47ef0"/><circle cx="117.56" cy="170.53" r="75" fill="#a47ef0"/><circle cx="116.19" cy="169.83" r="75" fill="#a47ef0"/><circle cx="114.86" cy="169.17" r="75" fill="#a47ef0"/><circle cx="113.59" cy="168.53" r="75" fill="#a47ef0"/><circle cx="112.38" cy="167.92" r="75" fill="#a57ef0"/><circle cx="111.21" cy="167.33" r="75" fill="#a57ff0"/><circle cx="110.08" cy="166.76" r="75" fill="#a57ff0"/><circle cx="109.01" cy="166.22" r="75" fill="#a57ff0"/><circle cx="107.97" cy="165.7" r="75" fill="#a57ff0"/><circle cx="106.98" cy="165.2" r="75" fill="#a67ff0"/><circle cx="106.02" cy="164.72" r="75" fill="#a67ff0"/><circle cx="105.11" cy="164.26" r="75" fill="#a67ff0"/><circle cx="104.23" cy="163.82" r="75" fill="#a680f0"/><circle cx="103.39" cy="163.39" r="75" fill="#a680f0"/><circle cx="102.58" cy="162.98" r="75" fill="#a780f0"/><circle cx="101.8" cy="162.59" r="75" fill="#a780f0"/><circle cx="101.05" cy="162.22" r="75" fill="#a780f0"/><circle cx="100.34" cy="161.85" r="75" fill="#a780f0"/><circle cx="99.65" cy="161.51" r="75" fill="#a781f0"/><circle cx="98.99" cy="161.18" r="75" fill="#a881f0"/><circle cx="98.35" cy="160.86" r="75" fill="#a881f0"/><circle cx="97.74" cy="160.55" r="75" fill="#a881f0"/><circle cx="97.16" cy="160.26" r="75" fill="#a881f0"/><circle cx="96.6" cy="159.97" r="75" fill="#a881f0"/><circle cx="96.06" cy="159.7" r="75" fill="#a881f0"/><circle cx="95.54" cy="159.44" r="75" fill="#a982f0"/><circle cx="95.05" cy="159.19" r="75" fill="#a982f0"/><circle cx="94.57" cy="158.95" r="75" fill="#a982f0"/><circle cx="94.11" cy="158.72" r="75" fill="#a982f0"/><circle cx="93.67" cy="158.5" r="75" fill="#a982f0"/><circle cx="93.25" cy="158.29" r="75" fill="#aa82f0"/><circle cx="92.85" cy="158.09" r="75" fill="#aa83f0"/><circle cx="92.46" cy="157.89" r="75" fill="#aa83f0"/><circle cx="92.09" cy="157.7" r="75" fill="#aa83f0"/><circle cx="91.73" cy="157.52" r="75" fill="#aa83f0"/><circle cx="91.39" cy="157.35" r="75" fill="#aa83f0"/><circle cx="91.06" cy="157.18" r="75" fill="#ab83f0"/><circle cx="90.74" cy="157.02" r="75" fill="#ab83f0"/><circle cx="90.43" cy="156.87" r="75" fill="#ab84f0"/><circle cx="90.14" cy="156.72" r="75" fill="#ab84f0"/><circle cx="89.86" cy="156.58" r="75" fill="#ab84f0"/><circle cx="89.59" cy="156.45" r="75" fill="#ac84f0"/><circle cx="89.34" cy="156.32" r="75" fill="#ac84f0"/><circle cx="89.09" cy="156.19" r="75" fill="#ac84f0"/><circle cx="88.85" cy="156.07" r="75" fill="#ac85f1"/><circle cx="88.62" cy="155.96" r="75" fill="#ac85f1"/><circle cx="88.4" cy="155.85" r="75" fill="#ad85f1"/><circle cx="88.19" cy="155.74" r="75" fill="#ad85f1"/><circle cx="87.99" cy="155.64" r="75" fill="#ad85f1"/><circle cx="87.79" cy="155.54" r="75" fill="#ad85f1"/><circle cx="87.61" cy="155.45" r="75" fill="#ad85f1"/><circle cx="87.43" cy="155.36" r="75" fill="#ad86f1"/><circle cx="87.26" cy="155.27" r="75" fill="#ae86f1"/><circle cx="87.09" cy="155.19" r="75" fill="#ae86f1"/><circle cx="86.93" cy="155.11" r="75" fill="#ae86f1"/><circle cx="86.78" cy="155.03" r="75" fill="#ae86f1"/><circle cx="86.64" cy="154.96" r="75" fill="#ae86f1"/><circle cx="86.5" cy="154.89" r="75" fill="#af87f1"/><circle cx="86.36" cy="154.82" r="75" fill="#af87f1"/><circle cx="86.23" cy="154.76" r="75" fill="#af87f1"/><circle cx="86.11" cy="154.69" r="75" fill="#af87f1"/><circle cx="85.99" cy="154.63" r="75" fill="#af87f1"/><circle cx="85.88" cy="154.58" r="75" fill="#af87f1"/><circle cx="85.77" cy="154.52" r="75" fill="#b087f1"/><circle cx="85.66" cy="154.47" r="75" fill="#b088f1"/><circle cx="85.56" cy="154.42" r="75" fill="#b088f1"/><circle cx="85.46" cy="154.37" r="75" fill="#b088f1"/><circle cx="85.37" cy="154.32" r="75" fill="#b088f1"/><circle cx="85.28" cy="154.28" r="75" fill="#b088f1"/><circle cx="85.2" cy="154.23" r="75" fill="#b188f1"/><circle cx="85.11" cy="154.19" r="75" fill="#b188f1"/><circle cx="85.03" cy="154.15" r="75" fill="#b189f1"/><circle cx="84.96" cy="154.11" r="75" fill="#b189f1"/><circle cx="84.89" cy="154.08" r="75" fill="#b189f1"/><circle cx="84.82" cy="154.04" r="75" fill="#b289f1"/><circle cx="84.75" cy="154.01" r="75" fill="#b289f1"/><circle cx="84.68" cy="153.98" r="75" fill="#b289f1"/><circle cx="84.62" cy="153.94" r="75" fill="#b28af1"/><circle cx="84.56" cy="153.91" r="75" fill="#b28af1"/><circle cx="84.51" cy="153.89" r="75" fill="#b28af1"/><circle cx="84.45" cy="153.86" r="75" fill="#b38af1"/><circle cx="84.4" cy="153.83" r="75" fill="#b38af1"/><circle cx="84.35" cy="153.81" r="75" fill="#b38af1"/><circle cx="84.3" cy="153.78" r="75" fill="#b38af1"/><circle cx="84.25" cy="153.76" r="75" fill="#b38bf1"/><circle cx="84.21" cy="153.74" r="75" fill="#b38bf1"/><circle cx="84.17" cy="153.71" r="75" fill="#b48bf1"/><circle cx="84.12" cy="153.69" r="75" fill="#b48bf1"/><circle cx="84.09" cy="153.67" r="75" fill="#b48bf1"/><circle cx="84.05" cy="153.65" r="75" fill="#b48bf1"/><circle cx="84.01" cy="153.64" r="75" fill="#b48cf1"/><circle cx="83.98" cy="153.62" r="75" fill="#b58cf1"/><circle cx="83.94" cy="153.6" r="75" fill="#b58cf1"/><circle cx="83.91" cy="153.59" r="75" fill="#b58cf1"/><circle cx="83.88" cy="153.57" r="75" fill="#b58cf1"/><circle cx="83.85" cy="153.55" r="75" fill="#b58cf1"/><circle cx="83.82" cy="153.54" r="75" fill="#b58cf1"/><circle cx="83.79" cy="153.53" r="75" fill="#b68df1"/><circle cx="83.77" cy="153.51" r="75" fill="#b68df2"/><circle cx="83.74" cy="153.5" r="75" fill="#b68df2"/><circle cx="83.72" cy="153.49" r="75" fill="#b68df2"/><circle cx="83.69" cy="153.48" r="75" fill="#b68df2"/><circle cx="83.67" cy="153.47" r="75" fill="#b68df2"/><circle cx="83.65" cy="153.45" r="75" fill="#b78df2"/><circle cx="83.63" cy="153.44" r="75" fill="#b78ef2"/><circle cx="83.61" cy="153.43" r="75" fill="#b78ef2"/><circle cx="83.59" cy="153.43" r="75" fill="#b78ef2"/><circle cx="83.57" cy="153.42" r="75" fill="#b78ef2"/><circle cx="83.56" cy="153.41" r="75" fill="#b78ef2"/><circle cx="83.54" cy="153.4" r="75" fill="#b88ef2"/><circle cx="83.52" cy="153.39" r="75" fill="#b88ff2"/><circle cx="83.51" cy="153.38" r="75" fill="#b88ff2"/><circle cx="83.49" cy="153.38" r="75" fill="#b88ff2"/><circle cx="83.48" cy="153.37" r="75" fill="#b88ff2"/><circle cx="83.47" cy="153.36" r="75" fill="#b88ff2"/><circle cx="83.45" cy="153.35" r="75" fill="#b98ff2"/><circle cx="83.44" cy="153.35" r="75" fill="#b98ff2"/><circle cx="83.43" cy="153.34" r="75" fill="#b990f2"/><circle cx="83.42" cy="153.34" r="75" fill="#b990f2"/><circle cx="83.4" cy="153.33" r="75" fill="#b990f2"/><circle cx="83.39" cy="153.33" r="75" fill="#ba90f2"/><circle cx="83.38" cy="153.32" r="75" fill="#ba90f2"/><circle cx="83.37" cy="153.32" r="75" fill="#ba90f2"/><circle cx="83.36" cy="153.31" r="75" fill="#ba91f2"/><circle cx="83.36" cy="153.31" r="75" fill="#ba91f2"/><circle cx="83.35" cy="153.3" r="75" fill="#ba91f2"/><circle cx="83.34" cy="153.3" r="75" fill="#bb91f2"/><circle cx="83.33" cy="153.29" r="75" fill="#bb91f2"/><circle cx="83.32" cy="153.29" r="75" fill="#bb91f2"/><circle cx="83.32" cy="153.29" r="75" fill="#bb91f2"/><circle cx="83.31" cy="153.28" r="75" fill="#bb92f2"/><circle cx="83.3" cy="153.28" r="75" fill="#bb92f2"/><circle cx="83.29" cy="153.28" r="75" fill="#bc92f2"/><circle cx="83.29" cy="153.27" r="75" fill="#bc92f2"/><circle cx="83.28" cy="153.27" r="75" fill="#bc92f2"/><circle cx="83.28" cy="153.27" r="75" fill="#bc92f2"/><circle cx="83.27" cy="153.26" r="75" fill="#bc93f2"/><circle cx="83.27" cy="153.26" r="75" fill="#bc93f2"/><circle cx="83.26" cy="153.26" r="75" fill="#bc93f2"/><circle cx="83.26" cy="153.26" r="75" fill="#bd93f2"/><circle cx="83.25" cy="153.25" r="75" fill="#bd93f2"/><circle cx="83.25" cy="153.25" r="75" fill="#bd93f2"/><circle cx="83.24" cy="153.25" r="75" fill="#bd93f2"/><circle cx="83.24" cy="153.25" r="75" fill="#bd94f2"/><circle cx="83.23" cy="153.24" r="75" fill="#bd94f2"/><circle cx="83.23" cy="153.24" r="75" fill="#be94f2"/><circle cx="83.23" cy="153.24" r="75" fill="#be94f2"/><circle cx="83.22" cy="153.24" r="75" fill="#be94f2"/><circle cx="83.22" cy="153.24" r="75" fill="#be94f2"/><circle cx="83.22" cy="153.24" r="75" fill="#be94f2"/><circle cx="83.21" cy="153.23" r="75" fill="#be95f2"/><circle cx="83.21" cy="153.23" r="75" fill="#bf95f2"/><circle cx="83.21" cy="153.23" r="75" fill="#bf95f3"/><circle cx="83.2" cy="153.23" r="75" fill="#bf95f3"/><circle cx="83.2" cy="153.23" r="75" fill="#bf95f3"/><circle cx="83.2" cy="153.23" r="75" fill="#bf95f3"/><circle cx="83.2" cy="153.23" r="75" fill="#bf96f3"/><circle cx="83.19" cy="153.22" r="75" fill="#c096f3"/><circle cx="83.19" cy="153.22" r="75" fill="#c096f3"/><circle cx="83.19" cy="153.22" r="75" fill="#c096f3"/><circle cx="83.19" cy="153.22" r="75" fill="#c096f3"/><circle cx="83.19" cy="153.22" r="75" fill="#c096f3"/><circle cx="83.18" cy="153.22" r="75" fill="#c096f3"/><circle cx="83.18" cy="153.22" r="75" fill="#c197f3"/><circle cx="83.18" cy="153.22" r="75" fill="#c197f3"/><circle cx="83.18" cy="153.22" r="75" fill="#c197f3"/><circle cx="83.18" cy="153.22" r="75" fill="#c197f3"/><circle cx="83.17" cy="153.22" r="75" fill="#c197f3"/><circle cx="83.17" cy="153.21" r="75" fill="#c197f3"/><circle cx="83.17" cy="153.21" r="75" fill="#c198f3"/><circle cx="83.17" cy="153.21" r="75" fill="#c298f3"/><circle cx="83.17" cy="153.21" r="75" fill="#c298f3"/><circle cx="83.17" cy="153.21" r="75" fill="#c298f3"/><circle cx="83.17" cy="153.21" r="75" fill="#c298f3"/><circle cx="83.17" cy="153.21" r="75" fill="#c298f3"/><circle cx="83.16" cy="153.21" r="75" fill="#c298f3"/><circle cx="83.16" cy="153.21" r="75" fill="#c399f3"/><circle cx="83.16" cy="153.21" r="75" fill="#c399f3"/><circle cx="83.16" cy="153.21" r="75" fill="#c399f3"/><circle cx="83.16" cy="153.21" r="75" fill="#c399f3"/><circle cx="83.16" cy="153.21" r="75" fill="#c399f3"/><circle cx="83.16" cy="153.21" r="75" fill="#c399f3"/><circle cx="83.16" cy="153.21" r="75" fill="#c49af3"/><circle cx="83.16" cy="153.21" r="75" fill="#c49af3"/><circle cx="83.16" cy="153.21" r="75" fill="#c49af3"/><circle cx="83.16" cy="153.21" r="75" fill="#c49af3"/><circle cx="83.15" cy="153.2" r="75" fill="#c49af3"/><circle cx="83.15" cy="153.2" r="75" fill="#c49af3"/><circle cx="83.15" cy="153.2" r="75" fill="#c49af3"/><circle cx="83.15" cy="153.2" r="75" fill="#c59bf3"/><circle cx="83.15" cy="153.2" r="75" fill="#c59bf3"/><circle cx="83.15" cy="153.2" r="75" fill="#c59bf3"/><circle cx="83.15" cy="153.2" r="75" fill="#c59bf3"/><circle cx="83.15" cy="153.2" r="75" fill="#c59bf3"/><circle cx="83.15" cy="153.2" r="75" fill="#c59bf3"/><circle cx="83.15" cy="153.2" r="75" fill="#c69cf3"/><circle cx="83.15" cy="153.2" r="75" fill="#c69cf3"/><circle cx="83.15" cy="153.2" r="75" fill="#c69cf3"/><circle cx="83.15" cy="153.2" r="75" fill="#c69cf3"/><circle cx="83.15" cy="153.2" r="75" fill="#c69cf3"/><circle cx="83.15" cy="153.2" r="75" fill="#c69cf3"/><circle cx="83.15" cy="153.2" r="75" fill="#c69cf3"/><circle cx="83.15" cy="153.2" r="75" fill="#c79df3"/><circle cx="83.15" cy="153.2" r="75" fill="#c79df3"/><circle cx="83.15" cy="153.2" r="75" fill="#c79df3"/><circle cx="83.15" cy="153.2" r="75" fill="#c79df3"/><circle cx="83.14" cy="153.2" r="75" fill="#c79df4"/><circle cx="83.14" cy="153.2" r="75" fill="#c79df4"/><circle cx="83.14" cy="153.2" r="75" fill="#c89df4"/><circle cx="83.14" cy="153.2" r="75" fill="#c89ef4"/><circle cx="83.14" cy="153.2" r="75" fill="#c89ef4"/><circle cx="83.14" cy="153.2" r="75" fill="#c89ef4"/><circle cx="83.14" cy="153.2" r="75" fill="#c89ef4"/><circle cx="83.14" cy="153.2" r="75" fill="#c89ef4"/><circle cx="83.14" cy="153.2" r="75" fill="#c89ef4"/><circle cx="83.14" cy="153.2" r="75" fill="#c99ff4"/><circle cx="83.14" cy="153.2" r="75" fill="#c99ff4"/><circle cx="83.14" cy="153.2" r="75" fill="#c99ff4"/><circle cx="83.14" cy="153.2" r="75" fill="#c99ff4"/><circle cx="83.14" cy="153.2" r="75" fill="#c99ff4"/><circle cx="83.14" cy="153.2" r="75" fill="#c99ff4"/><circle cx="83.14" cy="153.2" r="75" fill="#c99ff4"/><circle cx="83.14" cy="153.2" r="75" fill="#caa0f4"/><circle cx="83.14" cy="153.2" r="75" fill="#caa0f4"/><circle cx="83.14" cy="153.2" r="75" fill="#caa0f4"/><circle cx="83.14" cy="153.2" r="75" fill="#caa0f4"/><circle cx="83.14" cy="153.2" r="75" fill="#caa0f4"/><circle cx="83.14" cy="153.2" r="75" fill="#caa0f4"/><circle cx="83.14" cy="153.2" r="75" fill="#caa1f4"/><circle cx="83.14" cy="153.2" r="75" fill="#cba1f4"/><circle cx="83.14" cy="153.2" r="75" fill="#cba1f4"/><circle cx="83.14" cy="153.2" r="75" fill="#cba1f4"/><circle cx="83.14" cy="153.2" r="75" fill="#cba1f4"/><circle cx="83.14" cy="153.2" r="75" fill="#cba1f4"/><circle cx="83.14" cy="153.2" r="75" fill="#cba1f4"/><circle cx="83.14" cy="153.2" r="75" fill="#cca2f4"/><circle cx="83.14" cy="153.2" r="75" fill="#cca2f4"/><circle cx="83.14" cy="153.2" r="75" fill="#cca2f4"/><circle cx="83.14" cy="153.2" r="75" fill="#cca2f4"/><circle cx="83.14" cy="153.2" r="75" fill="#cca2f4"/><circle cx="83.14" cy="153.2" r="75" fill="#cca2f4"/><circle cx="83.14" cy="153.2" r="75" fill="#cca2f4"/><circle cx="83.14" cy="153.2" r="75" fill="#cda3f4"/><circle cx="83.14" cy="153.2" r="75" fill="#cda3f4"/><circle cx="83.14" cy="153.2" r="75" fill="#cda3f4"/><circle cx="83.14" cy="153.2" r="75" fill="#cda3f4"/><circle cx="83.14" cy="153.2" r="75" fill="#cda3f4"/><circle cx="83.14" cy="153.2" r="75" fill="#cda3f4"/><circle cx="83.14" cy="153.2" r="75" fill="#cda4f4"/><circle cx="83.14" cy="153.2" r="75" fill="#cea4f4"/><circle cx="83.14" cy="153.2" r="75" fill="#cea4f4"/><circle cx="83.14" cy="153.2" r="75" fill="#cea4f4"/><circle cx="83.14" cy="153.2" r="75" fill="#cea4f4"/><circle cx="83.14" cy="153.2" r="75" fill="#cea4f4"/><circle cx="83.14" cy="153.2" r="75" fill="#cea4f4"/><circle cx="83.14" cy="153.2" r="75" fill="#cea5f4"/><circle cx="83.14" cy="153.2" r="75" fill="#cfa5f4"/><circle cx="83.14" cy="153.2" r="75" fill="#cfa5f4"/><circle cx="83.14" cy="153.2" r="75" fill="#cfa5f4"/><circle cx="83.14" cy="153.2" r="75" fill="#cfa5f4"/><circle cx="83.14" cy="153.2" r="75" fill="#cfa5f5"/><circle cx="83.14" cy="153.2" r="75" fill="#cfa6f5"/><circle cx="83.14" cy="153.2" r="75" fill="#cfa6f5"/><circle cx="83.14" cy="153.2" r="75" fill="#cfa6f5"/><circle cx="83.14" cy="153.2" r="75" fill="#d0a6f5"/><circle cx="83.14" cy="153.2" r="75" fill="#d0a6f5"/><circle cx="83.14" cy="153.2" r="75" fill="#d0a6f5"/><circle cx="83.14" cy="153.2" r="75" fill="#d0a6f5"/><circle cx="83.14" cy="153.2" r="75" fill="#d0a7f5"/><circle cx="83.14" cy="153.2" r="75" fill="#d0a7f5"/><circle cx="83.14" cy="153.2" r="75" fill="#d0a7f5"/><circle cx="83.14" cy="153.2" r="75" fill="#d1a7f5"/><circle cx="83.14" cy="153.2" r="75" fill="#d1a7f5"/><circle cx="83.14" cy="153.2" r="75" fill="#d1a7f5"/><circle cx="83.14" cy="153.2" r="75" fill="#d1a8f5"/><circle cx="83.14" cy="153.2" r="75" fill="#d1a8f5"/><circle cx="83.14" cy="153.2" r="75" fill="#d1a8f5"/><circle cx="83.14" cy="153.2" r="75" fill="#d1a8f5"/><circle cx="83.14" cy="153.2" r="75" fill="#d2a8f5"/><circle cx="83.14" cy="153.2" r="75" fill="#d2a8f5"/><circle cx="83.14" cy="153.2" r="75" fill="#d2a8f5"/><circle cx="83.14" cy="153.2" r="75" fill="#d2a9f5"/><circle cx="83.14" cy="153.2" r="75" fill="#d2a9f5"/><circle cx="83.14" cy="153.2" r="75" fill="#d2a9f5"/><circle cx="83.14" cy="153.2" r="75" fill="#d2a9f5"/><circle cx="83.14" cy="153.2" r="75" fill="#d3a9f5"/><circle cx="83.14" cy="153.2" r="75" fill="#d3a9f5"/><circle cx="83.14" cy="153.2" r="75" fill="#d3a9f5"/><circle cx="83.14" cy="153.2" r="75" fill="#d3aaf5"/><circle cx="83.14" cy="153.2" r="75" fill="#d3aaf5"/><circle cx="83.14" cy="153.2" r="75" fill="#d3aaf5"/><circle cx="83.14" cy="153.2" r="75" fill="#d3aaf5"/><circle cx="83.14" cy="153.2" r="75" fill="#d3aaf5"/><circle cx="83.14" cy="153.2" r="75" fill="#d4aaf5"/><circle cx="83.14" cy="153.2" r="75" fill="#d4abf5"/><circle cx="83.14" cy="153.2" r="75" fill="#d4abf5"/><circle cx="83.14" cy="153.2" r="75" fill="#d4abf5"/><circle cx="83.14" cy="153.2" r="75" fill="#d4abf5"/><circle cx="83.14" cy="153.2" r="75" fill="#d4abf5"/><circle cx="83.14" cy="153.2" r="75" fill="#d4abf5"/><circle cx="83.14" cy="153.2" r="75" fill="#d5abf5"/><circle cx="83.14" cy="153.2" r="75" fill="#d5acf5"/><circle cx="83.14" cy="153.2" r="75" fill="#d5acf5"/><circle cx="83.14" cy="153.2" r="75" fill="#d5acf5"/><circle cx="83.14" cy="153.2" r="75" fill="#d5acf5"/><circle cx="83.14" cy="153.2" r="75" fill="#d5acf5"/><circle cx="83.14" cy="153.2" r="75" fill="#d5acf5"/><circle cx="83.14" cy="153.2" r="75" fill="#d5adf5"/><circle cx="83.14" cy="153.2" r="75" fill="#d6adf5"/><circle cx="83.14" cy="153.2" r="75" fill="#d6adf5"/><circle cx="83.14" cy="153.2" r="75" fill="#d6adf5"/><circle cx="83.14" cy="153.2" r="75" fill="#d6adf5"/><circle cx="83.14" cy="153.2" r="75" fill="#d6adf5"/><circle cx="83.14" cy="153.2" r="75" fill="#d6adf5"/><circle cx="83.14" cy="153.2" r="75" fill="#d6aef6"/><circle cx="83.14" cy="153.2" r="75" fill="#d7aef6"/><circle cx="83.14" cy="153.2" r="75" fill="#d7aef6"/><circle cx="83.14" cy="153.2" r="75" fill="#d7aef6"/><circle cx="83.14" cy="153.2" r="75" fill="#d7aef6"/><circle cx="83.14" cy="153.2" r="75" fill="#d7aef6"/><circle cx="83.14" cy="153.2" r="75" fill="#d7aef6"/><circle cx="83.14" cy="153.2" r="75" fill="#d7aff6"/><circle cx="83.14" cy="153.2" r="75" fill="#d7aff6"/><circle cx="83.14" cy="153.2" r="75" fill="#d8aff6"/><circle cx="83.14" cy="153.2" r="75" fill="#d8aff6"/><circle cx="83.14" cy="153.2" r="75" fill="#d8aff6"/><circle cx="83.14" cy="153.2" r="75" fill="#d8aff6"/><circle cx="83.14" cy="153.2" r="75" fill="#d8b0f6"/><circle cx="83.14" cy="153.2" r="75" fill="#d8b0f6"/><circle cx="83.14" cy="153.2" r="75" fill="#d8b0f6"/><circle cx="83.14" cy="153.2" r="75" fill="#d8b0f6"/><circle cx="83.14" cy="153.2" r="75" fill="#d9b0f6"/><circle cx="83.14" cy="153.2" r="75" fill="#d9b0f6"/><circle cx="83.14" cy="153.2" r="75" fill="#d9b1f6"/><circle cx="83.14" cy="153.2" r="75" fill="#d9b1f6"/><circle cx="83.14" cy="153.2" r="75" fill="#d9b1f6"/><circle cx="83.14" cy="153.2" r="75" fill="#d9b1f6"/><circle cx="83.14" cy="153.2" r="75" fill="#d9b1f6"/><circle cx="83.14" cy="153.2" r="75" fill="#d9b1f6"/><circle cx="83.14" cy="153.2" r="75" fill="#dab1f6"/><circle cx="83.14" cy="153.2" r="75" fill="#dab2f6"/><circle cx="83.14" cy="153.2" r="75" fill="#dab2f6"/><circle cx="83.14" cy="153.2" r="75" fill="#dab2f6"/><circle cx="83.14" cy="153.2" r="75" fill="#dab2f6"/><circle cx="83.14" cy="153.2" r="75" fill="#dab2f6"/><circle cx="83.14" cy="153.2" r="75" fill="#dab2f6"/><circle cx="83.14" cy="153.2" r="75" fill="#dab2f6"/><circle cx="83.14" cy="153.2" r="75" fill="#dbb3f6"/><circle cx="83.14" cy="153.2" r="75" fill="#dbb3f6"/><circle cx="83.14" cy="153.2" r="75" fill="#dbb3f6"/><circle cx="83.14" cy="153.2" r="75" fill="#dbb3f6"/><circle cx="83.14" cy="153.2" r="75" fill="#dbb3f6"/><circle cx="83.14" cy="153.2" r="75" fill="#dbb3f6"/><circle cx="83.14" cy="150.13" r="75" fill="#dbb4f6"/><circle cx="83.14" cy="147.19" r="75" fill="#dbb4f6"/><circle cx="83.14" cy="144.37" r="75" fill="#dcb4f6"/><circle cx="83.14" cy="141.66" r="75" fill="#dcb4f6"/><circle cx="83.14" cy="139.05" r="75" fill="#dcb4f6"/><circle cx="83.14" cy="136.55" r="75" fill="#dcb4f6"/><circle cx="83.14" cy="134.16" r="75" fill="#dcb4f6"/><circle cx="83.14" cy="131.85" r="75" fill="#dcb5f6"/><circle cx="83.14" cy="129.64" r="75" fill="#dcb5f6"/><circle cx="83.14" cy="127.52" r="75" fill="#dcb5f6"/><circle cx="83.14" cy="125.48" r="75" fill="#dcb5f6"/><circle cx="83.14" cy="123.53" r="75" fill="#ddb5f6"/><circle cx="83.14" cy="121.65" r="75" fill="#ddb5f6"/><circle cx="83.14" cy="119.85" r="75" fill="#ddb6f6"/><circle cx="83.14" cy="118.12" r="75" fill="#ddb6f6"/><circle cx="83.14" cy="116.46" r="75" fill="#ddb6f7"/><circle cx="83.14" cy="114.86" r="75" fill="#ddb6f7"/><circle cx="83.14" cy="113.33" r="75" fill="#ddb6f7"/><circle cx="83.14" cy="111.86" r="75" fill="#ddb6f7"/><circle cx="83.14" cy="110.45" r="75" fill="#deb6f7"/><circle cx="83.14" cy="109.1" r="75" fill="#deb7f7"/><circle cx="83.14" cy="107.8" r="75" fill="#deb7f7"/><circle cx="83.14" cy="106.55" r="75" fill="#deb7f7"/><circle cx="83.14" cy="105.35" r="75" fill="#deb7f7"/><circle cx="83.14" cy="104.2" r="75" fill="#deb7f7"/><circle cx="83.14" cy="103.09" r="75" fill="#deb7f7"/><circle cx="83.14" cy="102.03" r="75" fill="#deb7f7"/><circle cx="83.14" cy="101.02" r="75" fill="#deb8f7"/><circle cx="83.14" cy="100.04" r="75" fill="#dfb8f7"/><circle cx="83.14" cy="99.1" r="75" fill="#dfb8f7"/><circle cx="83.14" cy="98.2" r="75" fill="#dfb8f7"/><circle cx="83.14" cy="97.34" r="75" fill="#dfb8f7"/><circle cx="83.14" cy="96.51" r="75" fill="#dfb8f7"/><circle cx="83.14" cy="95.71" r="75" fill="#dfb9f7"/><circle cx="83.14" cy="94.95" r="75" fill="#dfb9f7"/><circle cx="83.14" cy="94.21" r="75" fill="#dfb9f7"/><circle cx="83.14" cy="93.51" r="75" fill="#e0b9f7"/><circle cx="83.14" cy="92.83" r="75" fill="#e0b9f7"/><circle cx="83.14" cy="92.18" r="75" fill="#e0b9f7"/><circle cx="83.14" cy="91.56" r="75" fill="#e0b9f7"/><circle cx="83.14" cy="90.96" r="75" fill="#e0baf7"/><circle cx="83.14" cy="90.38" r="75" fill="#e0baf7"/><circle cx="83.14" cy="89.83" r="75" fill="#e0baf7"/><circle cx="83.14" cy="89.3" r="75" fill="#e0baf7"/><circle cx="83.14" cy="88.79" r="75" fill="#e0baf7"/><circle cx="83.14" cy="88.31" r="75" fill="#e1baf7"/><circle cx="83.14" cy="87.84" r="75" fill="#e1bbf7"/><circle cx="83.14" cy="87.39" r="75" fill="#e1bbf7"/><circle cx="83.14" cy="86.95" r="75" fill="#e1bbf7"/><circle cx="83.14" cy="86.54" r="75" fill="#e1bbf7"/><circle cx="83.14" cy="86.14" r="75" fill="#e1bbf7"/><circle cx="83.14" cy="85.76" r="75" fill="#e1bbf7"/><circle cx="83.14" cy="85.39" r="75" fill="#e1bbf7"/><circle cx="83.14" cy="85.04" r="75" fill="#e1bcf7"/><circle cx="83.14" cy="84.7" r="75" fill="#e2bcf7"/><circle cx="83.14" cy="84.38" r="75" fill="#e2bcf7"/><circle cx="83.14" cy="84.07" r="75" fill="#e2bcf7"/><circle cx="83.14" cy="83.77" r="75" fill="#e2bcf7"/><circle cx="83.14" cy="83.48" r="75" fill="#e2bcf7"/><circle cx="83.14" cy="83.21" r="75" fill="#e2bdf7"/><circle cx="83.14" cy="82.94" r="75" fill="#e2bdf7"/><circle cx="83.14" cy="82.69" r="75" fill="#e2bdf7"/><circle cx="83.14" cy="82.44" r="75" fill="#e2bdf7"/><circle cx="83.14" cy="82.21" r="75" fill="#e3bdf7"/><circle cx="83.14" cy="81.98" r="75" fill="#e3bdf7"/><circle cx="83.14" cy="81.77" r="75" fill="#e3bdf7"/><circle cx="83.14" cy="81.56" r="75" fill="#e3bef7"/><circle cx="83.14" cy="81.36" r="75" fill="#e3bef7"/><circle cx="83.14" cy="81.17" r="75" fill="#e3bef8"/><circle cx="83.14" cy="80.99" r="75" fill="#e3bef8"/><circle cx="83.14" cy="80.81" r="75" fill="#e3bef8"/><circle cx="83.14" cy="80.64" r="75" fill="#e3bef8"/><circle cx="83.14" cy="80.48" r="75" fill="#e4bef8"/><circle cx="83.14" cy="80.33" r="75" fill="#e4bff8"/><circle cx="83.14" cy="80.18" r="75" fill="#e4bff8"/><circle cx="83.14" cy="80.03" r="75" fill="#e4bff8"/><circle cx="83.14" cy="79.9" r="75" fill="#e4bff8"/><circle cx="83.14" cy="79.76" r="75" fill="#e4bff8"/><circle cx="83.14" cy="79.64" r="75" fill="#e4bff8"/><circle cx="83.14" cy="79.51" r="75" fill="#e4c0f8"/><circle cx="83.14" cy="79.4" r="75" fill="#e4c0f8"/><circle cx="83.14" cy="79.28" r="75" fill="#e4c0f8"/><circle cx="83.14" cy="79.18" r="75" fill="#e5c0f8"/><circle cx="83.14" cy="79.07" r="75" fill="#e5c0f8"/><circle cx="83.14" cy="78.97" r="75" fill="#e5c0f8"/><circle cx="83.14" cy="78.88" r="75" fill="#e5c0f8"/><circle cx="83.14" cy="78.79" r="75" fill="#e5c1f8"/><circle cx="83.14" cy="78.7" r="75" fill="#e5c1f8"/><circle cx="83.14" cy="78.62" r="75" fill="#e5c1f8"/><circle cx="83.14" cy="78.53" r="75" fill="#e5c1f8"/><circle cx="83.14" cy="78.46" r="75" fill="#e5c1f8"/><circle cx="83.14" cy="78.38" r="75" fill="#e6c1f8"/><circle cx="83.14" cy="78.31" r="75" fill="#e6c2f8"/><circle cx="83.14" cy="78.24" r="75" fill="#e6c2f8"/><circle cx="83.14" cy="78.18" r="75" fill="#e6c2f8"/><circle cx="83.14" cy="78.11" r="75" fill="#e6c2f8"/><circle cx="83.14" cy="78.05" r="75" fill="#e6c2f8"/><circle cx="83.14" cy="77.99" r="75" fill="#e6c2f8"/><circle cx="83.14" cy="77.94" r="75" fill="#e6c2f8"/><circle cx="83.14" cy="77.88" r="75" fill="#e6c3f8"/><circle cx="83.14" cy="77.83" r="75" fill="#e6c3f8"/><circle cx="83.14" cy="77.78" r="75" fill="#e7c3f8"/><circle cx="83.14" cy="77.73" r="75" fill="#e7c3f8"/><circle cx="83.14" cy="77.38" r="75" fill="#e7c3f8"/><circle cx="83.14" cy="77.04" r="75" fill="#e7c3f8"/><circle cx="83.14" cy="76.71" r="75" fill="#e7c3f8"/><circle cx="83.14" cy="76.39" r="75" fill="#e7c4f8"/><circle cx="83.14" cy="76.09" r="75" fill="#e7c4f8"/><circle cx="83.14" cy="75.8" r="75" fill="#e7c4f8"/><circle cx="83.14" cy="75.52" r="75" fill="#e7c4f8"/><circle cx="83.14" cy="75.26" r="75" fill="#e7c4f8"/><circle cx="83.14" cy="75" r="75" fill="#e8c4f8"/></g></svg>